<?xml version="1.0" encoding="utf-8" standalone="no"?>
<!DOCTYPE svg PUBLIC "-//W3C//DTD SVG 1.1//EN"
  "http://www.w3.org/Graphics/SVG/1.1/DTD/svg11.dtd">
<svg xmlns:xlink="http://www.w3.org/1999/xlink" width="712.013437pt" height="566.56375pt" viewBox="0 0 712.013437 566.56375" xmlns="http://www.w3.org/2000/svg" version="1.1">
 <metadata>
  <rdf:RDF xmlns:dc="http://purl.org/dc/elements/1.1/" xmlns:cc="http://creativecommons.org/ns#" xmlns:rdf="http://www.w3.org/1999/02/22-rdf-syntax-ns#">
   <cc:Work>
    <dc:type rdf:resource="http://purl.org/dc/dcmitype/StillImage"/>
    <dc:date>2025-08-10T14:36:13.903201</dc:date>
    <dc:format>image/svg+xml</dc:format>
    <dc:creator>
     <cc:Agent>
      <dc:title>Matplotlib v3.10.0, https://matplotlib.org/</dc:title>
     </cc:Agent>
    </dc:creator>
   </cc:Work>
  </rdf:RDF>
 </metadata>
 <defs>
  <style type="text/css">*{stroke-linejoin: round; stroke-linecap: butt}</style>
 </defs>
 <g id="figure_1">
  <g id="patch_1">
   <path d="M 0 566.56375 
L 712.013437 566.56375 
L 712.013437 0 
L 0 0 
z
" style="fill: #ffffff"/>
  </g>
  <g id="axes_1">
   <g id="patch_2">
    <path d="M 35.423438 262.86 
L 343.283437 262.86 
L 343.283437 45.6 
L 35.423438 45.6 
z
" style="fill: #ffffff"/>
   </g>
   <g id="matplotlib.axis_1">
    <g id="xtick_1">
     <g id="line2d_1">
      <path d="M 46.45606 262.86 
L 46.45606 45.6 
" clip-path="url(#p1c8d9d1952)" style="fill: none; stroke: #cccccc; stroke-opacity: 0.3; stroke-width: 0.8; stroke-linecap: round"/>
     </g>
     <g id="line2d_2"/>
     <g id="text_1">
      <!-- −2.0 -->
      <g style="fill: #262626" transform="translate(36.585747 273.606875) scale(0.1 -0.1)">
       <defs>
        <path id="LiberationSans-2212" d="M 316 1900 
L 316 2356 
L 3425 2356 
L 3425 1900 
L 316 1900 
z
" transform="scale(0.015625)"/>
        <path id="LiberationSans-32" d="M 322 0 
L 322 397 
Q 481 763 711 1042 
Q 941 1322 1194 1548 
Q 1447 1775 1695 1969 
Q 1944 2163 2144 2356 
Q 2344 2550 2467 2762 
Q 2591 2975 2591 3244 
Q 2591 3606 2378 3806 
Q 2166 4006 1788 4006 
Q 1428 4006 1195 3811 
Q 963 3616 922 3263 
L 347 3316 
Q 409 3844 795 4156 
Q 1181 4469 1788 4469 
Q 2453 4469 2811 4155 
Q 3169 3841 3169 3263 
Q 3169 3006 3051 2753 
Q 2934 2500 2703 2247 
Q 2472 1994 1819 1463 
Q 1459 1169 1246 933 
Q 1034 697 941 478 
L 3238 478 
L 3238 0 
L 322 0 
z
" transform="scale(0.015625)"/>
        <path id="LiberationSans-2e" d="M 584 0 
L 584 684 
L 1194 684 
L 1194 0 
L 584 0 
z
" transform="scale(0.015625)"/>
        <path id="LiberationSans-30" d="M 3309 2203 
Q 3309 1100 2920 518 
Q 2531 -63 1772 -63 
Q 1013 -63 631 515 
Q 250 1094 250 2203 
Q 250 3338 620 3903 
Q 991 4469 1791 4469 
Q 2569 4469 2939 3897 
Q 3309 3325 3309 2203 
z
M 2738 2203 
Q 2738 3156 2517 3584 
Q 2297 4013 1791 4013 
Q 1272 4013 1045 3591 
Q 819 3169 819 2203 
Q 819 1266 1048 831 
Q 1278 397 1778 397 
Q 2275 397 2506 840 
Q 2738 1284 2738 2203 
z
" transform="scale(0.015625)"/>
       </defs>
       <use xlink:href="#LiberationSans-2212"/>
       <use xlink:href="#LiberationSans-32" transform="translate(58.398438 0)"/>
       <use xlink:href="#LiberationSans-2e" transform="translate(114.013672 0)"/>
       <use xlink:href="#LiberationSans-30" transform="translate(141.796875 0)"/>
      </g>
     </g>
    </g>
    <g id="xtick_2">
     <g id="line2d_3">
      <path d="M 83.165992 262.86 
L 83.165992 45.6 
" clip-path="url(#p1c8d9d1952)" style="fill: none; stroke: #cccccc; stroke-opacity: 0.3; stroke-width: 0.8; stroke-linecap: round"/>
     </g>
     <g id="line2d_4"/>
     <g id="text_2">
      <!-- −1.5 -->
      <g style="fill: #262626" transform="translate(73.295679 273.606875) scale(0.1 -0.1)">
       <defs>
        <path id="LiberationSans-31" d="M 488 0 
L 488 478 
L 1609 478 
L 1609 3866 
L 616 3156 
L 616 3688 
L 1656 4403 
L 2175 4403 
L 2175 478 
L 3247 478 
L 3247 0 
L 488 0 
z
" transform="scale(0.015625)"/>
        <path id="LiberationSans-35" d="M 3291 1434 
Q 3291 738 2877 337 
Q 2463 -63 1728 -63 
Q 1113 -63 734 206 
Q 356 475 256 984 
L 825 1050 
Q 1003 397 1741 397 
Q 2194 397 2450 670 
Q 2706 944 2706 1422 
Q 2706 1838 2448 2094 
Q 2191 2350 1753 2350 
Q 1525 2350 1328 2278 
Q 1131 2206 934 2034 
L 384 2034 
L 531 4403 
L 3034 4403 
L 3034 3925 
L 1044 3925 
L 959 2528 
Q 1325 2809 1869 2809 
Q 2519 2809 2905 2428 
Q 3291 2047 3291 1434 
z
" transform="scale(0.015625)"/>
       </defs>
       <use xlink:href="#LiberationSans-2212"/>
       <use xlink:href="#LiberationSans-31" transform="translate(58.398438 0)"/>
       <use xlink:href="#LiberationSans-2e" transform="translate(114.013672 0)"/>
       <use xlink:href="#LiberationSans-35" transform="translate(141.796875 0)"/>
      </g>
     </g>
    </g>
    <g id="xtick_3">
     <g id="line2d_5">
      <path d="M 119.875924 262.86 
L 119.875924 45.6 
" clip-path="url(#p1c8d9d1952)" style="fill: none; stroke: #cccccc; stroke-opacity: 0.3; stroke-width: 0.8; stroke-linecap: round"/>
     </g>
     <g id="line2d_6"/>
     <g id="text_3">
      <!-- −1.0 -->
      <g style="fill: #262626" transform="translate(110.005612 273.606875) scale(0.1 -0.1)">
       <use xlink:href="#LiberationSans-2212"/>
       <use xlink:href="#LiberationSans-31" transform="translate(58.398438 0)"/>
       <use xlink:href="#LiberationSans-2e" transform="translate(114.013672 0)"/>
       <use xlink:href="#LiberationSans-30" transform="translate(141.796875 0)"/>
      </g>
     </g>
    </g>
    <g id="xtick_4">
     <g id="line2d_7">
      <path d="M 156.585856 262.86 
L 156.585856 45.6 
" clip-path="url(#p1c8d9d1952)" style="fill: none; stroke: #cccccc; stroke-opacity: 0.3; stroke-width: 0.8; stroke-linecap: round"/>
     </g>
     <g id="line2d_8"/>
     <g id="text_4">
      <!-- −0.5 -->
      <g style="fill: #262626" transform="translate(146.715544 273.606875) scale(0.1 -0.1)">
       <use xlink:href="#LiberationSans-2212"/>
       <use xlink:href="#LiberationSans-30" transform="translate(58.398438 0)"/>
       <use xlink:href="#LiberationSans-2e" transform="translate(114.013672 0)"/>
       <use xlink:href="#LiberationSans-35" transform="translate(141.796875 0)"/>
      </g>
     </g>
    </g>
    <g id="xtick_5">
     <g id="line2d_9">
      <path d="M 193.295788 262.86 
L 193.295788 45.6 
" clip-path="url(#p1c8d9d1952)" style="fill: none; stroke: #cccccc; stroke-opacity: 0.3; stroke-width: 0.8; stroke-linecap: round"/>
     </g>
     <g id="line2d_10"/>
     <g id="text_5">
      <!-- 0.0 -->
      <g style="fill: #262626" transform="translate(186.345788 273.606875) scale(0.1 -0.1)">
       <use xlink:href="#LiberationSans-30"/>
       <use xlink:href="#LiberationSans-2e" transform="translate(55.615234 0)"/>
       <use xlink:href="#LiberationSans-30" transform="translate(83.398438 0)"/>
      </g>
     </g>
    </g>
    <g id="xtick_6">
     <g id="line2d_11">
      <path d="M 230.00572 262.86 
L 230.00572 45.6 
" clip-path="url(#p1c8d9d1952)" style="fill: none; stroke: #cccccc; stroke-opacity: 0.3; stroke-width: 0.8; stroke-linecap: round"/>
     </g>
     <g id="line2d_12"/>
     <g id="text_6">
      <!-- 0.5 -->
      <g style="fill: #262626" transform="translate(223.05572 273.606875) scale(0.1 -0.1)">
       <use xlink:href="#LiberationSans-30"/>
       <use xlink:href="#LiberationSans-2e" transform="translate(55.615234 0)"/>
       <use xlink:href="#LiberationSans-35" transform="translate(83.398438 0)"/>
      </g>
     </g>
    </g>
    <g id="xtick_7">
     <g id="line2d_13">
      <path d="M 266.715653 262.86 
L 266.715653 45.6 
" clip-path="url(#p1c8d9d1952)" style="fill: none; stroke: #cccccc; stroke-opacity: 0.3; stroke-width: 0.8; stroke-linecap: round"/>
     </g>
     <g id="line2d_14"/>
     <g id="text_7">
      <!-- 1.0 -->
      <g style="fill: #262626" transform="translate(259.765653 273.606875) scale(0.1 -0.1)">
       <use xlink:href="#LiberationSans-31"/>
       <use xlink:href="#LiberationSans-2e" transform="translate(55.615234 0)"/>
       <use xlink:href="#LiberationSans-30" transform="translate(83.398438 0)"/>
      </g>
     </g>
    </g>
    <g id="xtick_8">
     <g id="line2d_15">
      <path d="M 303.425585 262.86 
L 303.425585 45.6 
" clip-path="url(#p1c8d9d1952)" style="fill: none; stroke: #cccccc; stroke-opacity: 0.3; stroke-width: 0.8; stroke-linecap: round"/>
     </g>
     <g id="line2d_16"/>
     <g id="text_8">
      <!-- 1.5 -->
      <g style="fill: #262626" transform="translate(296.475585 273.606875) scale(0.1 -0.1)">
       <use xlink:href="#LiberationSans-31"/>
       <use xlink:href="#LiberationSans-2e" transform="translate(55.615234 0)"/>
       <use xlink:href="#LiberationSans-35" transform="translate(83.398438 0)"/>
      </g>
     </g>
    </g>
    <g id="xtick_9">
     <g id="line2d_17">
      <path d="M 340.135517 262.86 
L 340.135517 45.6 
" clip-path="url(#p1c8d9d1952)" style="fill: none; stroke: #cccccc; stroke-opacity: 0.3; stroke-width: 0.8; stroke-linecap: round"/>
     </g>
     <g id="line2d_18"/>
     <g id="text_9">
      <!-- 2.0 -->
      <g style="fill: #262626" transform="translate(333.185517 273.606875) scale(0.1 -0.1)">
       <use xlink:href="#LiberationSans-32"/>
       <use xlink:href="#LiberationSans-2e" transform="translate(55.615234 0)"/>
       <use xlink:href="#LiberationSans-30" transform="translate(83.398438 0)"/>
      </g>
     </g>
    </g>
    <g id="text_10">
     <!-- X -->
     <g style="fill: #262626" transform="translate(186.018281 286.92875) scale(0.1 -0.1)">
      <defs>
       <path id="LiberationSans-58" d="M 3475 0 
L 2153 1925 
L 803 0 
L 144 0 
L 1819 2288 
L 272 4403 
L 931 4403 
L 2156 2675 
L 3347 4403 
L 4006 4403 
L 2500 2309 
L 4134 0 
L 3475 0 
z
" transform="scale(0.015625)"/>
      </defs>
      <use xlink:href="#LiberationSans-58"/>
     </g>
    </g>
   </g>
   <g id="matplotlib.axis_2">
    <g id="ytick_1">
     <g id="line2d_19">
      <path d="M 35.423438 242.888588 
L 343.283437 242.888588 
" clip-path="url(#p1c8d9d1952)" style="fill: none; stroke: #cccccc; stroke-opacity: 0.3; stroke-width: 0.8; stroke-linecap: round"/>
     </g>
     <g id="line2d_20"/>
     <g id="text_11">
      <!-- −4 -->
      <g style="fill: #262626" transform="translate(20.521875 246.512025) scale(0.1 -0.1)">
       <defs>
        <path id="LiberationSans-34" d="M 2753 997 
L 2753 0 
L 2222 0 
L 2222 997 
L 147 997 
L 147 1434 
L 2163 4403 
L 2753 4403 
L 2753 1441 
L 3372 1441 
L 3372 997 
L 2753 997 
z
M 2222 3769 
Q 2216 3750 2134 3603 
Q 2053 3456 2013 3397 
L 884 1734 
L 716 1503 
L 666 1441 
L 2222 1441 
L 2222 3769 
z
" transform="scale(0.015625)"/>
       </defs>
       <use xlink:href="#LiberationSans-2212"/>
       <use xlink:href="#LiberationSans-34" transform="translate(58.398438 0)"/>
      </g>
     </g>
    </g>
    <g id="ytick_2">
     <g id="line2d_21">
      <path d="M 35.423438 195.340584 
L 343.283437 195.340584 
" clip-path="url(#p1c8d9d1952)" style="fill: none; stroke: #cccccc; stroke-opacity: 0.3; stroke-width: 0.8; stroke-linecap: round"/>
     </g>
     <g id="line2d_22"/>
     <g id="text_12">
      <!-- −2 -->
      <g style="fill: #262626" transform="translate(20.521875 198.964022) scale(0.1 -0.1)">
       <use xlink:href="#LiberationSans-2212"/>
       <use xlink:href="#LiberationSans-32" transform="translate(58.398438 0)"/>
      </g>
     </g>
    </g>
    <g id="ytick_3">
     <g id="line2d_23">
      <path d="M 35.423438 147.792581 
L 343.283437 147.792581 
" clip-path="url(#p1c8d9d1952)" style="fill: none; stroke: #cccccc; stroke-opacity: 0.3; stroke-width: 0.8; stroke-linecap: round"/>
     </g>
     <g id="line2d_24"/>
     <g id="text_13">
      <!-- 0 -->
      <g style="fill: #262626" transform="translate(26.3625 151.416019) scale(0.1 -0.1)">
       <use xlink:href="#LiberationSans-30"/>
      </g>
     </g>
    </g>
    <g id="ytick_4">
     <g id="line2d_25">
      <path d="M 35.423438 100.244578 
L 343.283437 100.244578 
" clip-path="url(#p1c8d9d1952)" style="fill: none; stroke: #cccccc; stroke-opacity: 0.3; stroke-width: 0.8; stroke-linecap: round"/>
     </g>
     <g id="line2d_26"/>
     <g id="text_14">
      <!-- 2 -->
      <g style="fill: #262626" transform="translate(26.3625 103.868015) scale(0.1 -0.1)">
       <use xlink:href="#LiberationSans-32"/>
      </g>
     </g>
    </g>
    <g id="ytick_5">
     <g id="line2d_27">
      <path d="M 35.423438 52.696575 
L 343.283437 52.696575 
" clip-path="url(#p1c8d9d1952)" style="fill: none; stroke: #cccccc; stroke-opacity: 0.3; stroke-width: 0.8; stroke-linecap: round"/>
     </g>
     <g id="line2d_28"/>
     <g id="text_15">
      <!-- 4 -->
      <g style="fill: #262626" transform="translate(26.3625 56.320012) scale(0.1 -0.1)">
       <use xlink:href="#LiberationSans-34"/>
      </g>
     </g>
    </g>
    <g id="text_16">
     <!-- Y -->
     <g style="fill: #262626" transform="translate(14.446875 157.565156) rotate(-90) scale(0.1 -0.1)">
      <defs>
       <path id="LiberationSans-59" d="M 2428 1825 
L 2428 0 
L 1834 0 
L 1834 1825 
L 141 4403 
L 797 4403 
L 2138 2306 
L 3472 4403 
L 4128 4403 
L 2428 1825 
z
" transform="scale(0.015625)"/>
      </defs>
      <use xlink:href="#LiberationSans-59"/>
     </g>
    </g>
   </g>
   <g id="PathCollection_1">
    <defs>
     <path id="m039ce9b7a1" d="M 0 3 
C 0.795609 3 1.55874 2.683901 2.12132 2.12132 
C 2.683901 1.55874 3 0.795609 3 0 
C 3 -0.795609 2.683901 -1.55874 2.12132 -2.12132 
C 1.55874 -2.683901 0.795609 -3 0 -3 
C -0.795609 -3 -1.55874 -2.683901 -2.12132 -2.12132 
C -2.683901 -1.55874 -3 -0.795609 -3 0 
C -3 0.795609 -2.683901 1.55874 -2.12132 2.12132 
C -1.55874 2.683901 -0.795609 3 0 3 
z
" style="stroke: #0000ff; stroke-opacity: 0.6"/>
    </defs>
    <g clip-path="url(#p1c8d9d1952)">
     <use xlink:href="#m039ce9b7a1" x="229.764474" y="120.322429" style="fill: #0000ff; fill-opacity: 0.6; stroke: #0000ff; stroke-opacity: 0.6"/>
     <use xlink:href="#m039ce9b7a1" x="183.144442" y="158.944246" style="fill: #0000ff; fill-opacity: 0.6; stroke: #0000ff; stroke-opacity: 0.6"/>
     <use xlink:href="#m039ce9b7a1" x="240.848993" y="125.042857" style="fill: #0000ff; fill-opacity: 0.6; stroke: #0000ff; stroke-opacity: 0.6"/>
     <use xlink:href="#m039ce9b7a1" x="305.116434" y="68.104556" style="fill: #0000ff; fill-opacity: 0.6; stroke: #0000ff; stroke-opacity: 0.6"/>
     <use xlink:href="#m039ce9b7a1" x="176.104279" y="146.670614" style="fill: #0000ff; fill-opacity: 0.6; stroke: #0000ff; stroke-opacity: 0.6"/>
     <use xlink:href="#m039ce9b7a1" x="176.105485" y="147.855198" style="fill: #0000ff; fill-opacity: 0.6; stroke: #0000ff; stroke-opacity: 0.6"/>
     <use xlink:href="#m039ce9b7a1" x="309.241379" y="82.679944" style="fill: #0000ff; fill-opacity: 0.6; stroke: #0000ff; stroke-opacity: 0.6"/>
     <use xlink:href="#m039ce9b7a1" x="249.640742" y="114.9782" style="fill: #0000ff; fill-opacity: 0.6; stroke: #0000ff; stroke-opacity: 0.6"/>
     <use xlink:href="#m039ce9b7a1" x="158.827043" y="166.177422" style="fill: #0000ff; fill-opacity: 0.6; stroke: #0000ff; stroke-opacity: 0.6"/>
     <use xlink:href="#m039ce9b7a1" x="233.130473" y="110.398629" style="fill: #0000ff; fill-opacity: 0.6; stroke: #0000ff; stroke-opacity: 0.6"/>
     <use xlink:href="#m039ce9b7a1" x="159.271724" y="175.523112" style="fill: #0000ff; fill-opacity: 0.6; stroke: #0000ff; stroke-opacity: 0.6"/>
     <use xlink:href="#m039ce9b7a1" x="159.101973" y="172.144029" style="fill: #0000ff; fill-opacity: 0.6; stroke: #0000ff; stroke-opacity: 0.6"/>
     <use xlink:href="#m039ce9b7a1" x="211.060625" y="149.438763" style="fill: #0000ff; fill-opacity: 0.6; stroke: #0000ff; stroke-opacity: 0.6"/>
     <use xlink:href="#m039ce9b7a1" x="52.823012" y="252.984545" style="fill: #0000ff; fill-opacity: 0.6; stroke: #0000ff; stroke-opacity: 0.6"/>
     <use xlink:href="#m039ce9b7a1" x="66.652555" y="220.150485" style="fill: #0000ff; fill-opacity: 0.6; stroke: #0000ff; stroke-opacity: 0.6"/>
     <use xlink:href="#m039ce9b7a1" x="152.012714" y="158.406604" style="fill: #0000ff; fill-opacity: 0.6; stroke: #0000ff; stroke-opacity: 0.6"/>
     <use xlink:href="#m039ce9b7a1" x="118.933865" y="196.806663" style="fill: #0000ff; fill-opacity: 0.6; stroke: #0000ff; stroke-opacity: 0.6"/>
     <use xlink:href="#m039ce9b7a1" x="216.367785" y="120.921752" style="fill: #0000ff; fill-opacity: 0.6; stroke: #0000ff; stroke-opacity: 0.6"/>
     <use xlink:href="#m039ce9b7a1" x="126.628784" y="186.668545" style="fill: #0000ff; fill-opacity: 0.6; stroke: #0000ff; stroke-opacity: 0.6"/>
     <use xlink:href="#m039ce9b7a1" x="89.604642" y="222.613341" style="fill: #0000ff; fill-opacity: 0.6; stroke: #0000ff; stroke-opacity: 0.6"/>
     <use xlink:href="#m039ce9b7a1" x="300.903522" y="73.807999" style="fill: #0000ff; fill-opacity: 0.6; stroke: #0000ff; stroke-opacity: 0.6"/>
     <use xlink:href="#m039ce9b7a1" x="176.719323" y="140.245151" style="fill: #0000ff; fill-opacity: 0.6; stroke: #0000ff; stroke-opacity: 0.6"/>
     <use xlink:href="#m039ce9b7a1" x="198.2537" y="145.007614" style="fill: #0000ff; fill-opacity: 0.6; stroke: #0000ff; stroke-opacity: 0.6"/>
     <use xlink:href="#m039ce9b7a1" x="88.69097" y="196.937592" style="fill: #0000ff; fill-opacity: 0.6; stroke: #0000ff; stroke-opacity: 0.6"/>
     <use xlink:href="#m039ce9b7a1" x="153.327283" y="204.817805" style="fill: #0000ff; fill-opacity: 0.6; stroke: #0000ff; stroke-opacity: 0.6"/>
     <use xlink:href="#m039ce9b7a1" x="201.43971" y="132.748478" style="fill: #0000ff; fill-opacity: 0.6; stroke: #0000ff; stroke-opacity: 0.6"/>
     <use xlink:href="#m039ce9b7a1" x="108.789996" y="201.485299" style="fill: #0000ff; fill-opacity: 0.6; stroke: #0000ff; stroke-opacity: 0.6"/>
     <use xlink:href="#m039ce9b7a1" x="220.879486" y="133.483191" style="fill: #0000ff; fill-opacity: 0.6; stroke: #0000ff; stroke-opacity: 0.6"/>
     <use xlink:href="#m039ce9b7a1" x="149.196977" y="175.260991" style="fill: #0000ff; fill-opacity: 0.6; stroke: #0000ff; stroke-opacity: 0.6"/>
     <use xlink:href="#m039ce9b7a1" x="171.879673" y="185.28827" style="fill: #0000ff; fill-opacity: 0.6; stroke: #0000ff; stroke-opacity: 0.6"/>
     <use xlink:href="#m039ce9b7a1" x="149.118571" y="179.013769" style="fill: #0000ff; fill-opacity: 0.6; stroke: #0000ff; stroke-opacity: 0.6"/>
     <use xlink:href="#m039ce9b7a1" x="329.289801" y="55.475455" style="fill: #0000ff; fill-opacity: 0.6; stroke: #0000ff; stroke-opacity: 0.6"/>
     <use xlink:href="#m039ce9b7a1" x="192.304824" y="130.866619" style="fill: #0000ff; fill-opacity: 0.6; stroke: #0000ff; stroke-opacity: 0.6"/>
     <use xlink:href="#m039ce9b7a1" x="115.638796" y="204.245302" style="fill: #0000ff; fill-opacity: 0.6; stroke: #0000ff; stroke-opacity: 0.6"/>
     <use xlink:href="#m039ce9b7a1" x="253.686924" y="118.292777" style="fill: #0000ff; fill-opacity: 0.6; stroke: #0000ff; stroke-opacity: 0.6"/>
     <use xlink:href="#m039ce9b7a1" x="103.661613" y="211.805645" style="fill: #0000ff; fill-opacity: 0.6; stroke: #0000ff; stroke-opacity: 0.6"/>
     <use xlink:href="#m039ce9b7a1" x="208.630525" y="126.980148" style="fill: #0000ff; fill-opacity: 0.6; stroke: #0000ff; stroke-opacity: 0.6"/>
     <use xlink:href="#m039ce9b7a1" x="49.417074" y="237.063118" style="fill: #0000ff; fill-opacity: 0.6; stroke: #0000ff; stroke-opacity: 0.6"/>
     <use xlink:href="#m039ce9b7a1" x="95.780549" y="217.242436" style="fill: #0000ff; fill-opacity: 0.6; stroke: #0000ff; stroke-opacity: 0.6"/>
     <use xlink:href="#m039ce9b7a1" x="207.749314" y="132.331012" style="fill: #0000ff; fill-opacity: 0.6; stroke: #0000ff; stroke-opacity: 0.6"/>
     <use xlink:href="#m039ce9b7a1" x="247.513904" y="111.526009" style="fill: #0000ff; fill-opacity: 0.6; stroke: #0000ff; stroke-opacity: 0.6"/>
     <use xlink:href="#m039ce9b7a1" x="205.877624" y="128.130078" style="fill: #0000ff; fill-opacity: 0.6; stroke: #0000ff; stroke-opacity: 0.6"/>
     <use xlink:href="#m039ce9b7a1" x="184.804907" y="161.636732" style="fill: #0000ff; fill-opacity: 0.6; stroke: #0000ff; stroke-opacity: 0.6"/>
     <use xlink:href="#m039ce9b7a1" x="171.188796" y="166.004381" style="fill: #0000ff; fill-opacity: 0.6; stroke: #0000ff; stroke-opacity: 0.6"/>
     <use xlink:href="#m039ce9b7a1" x="84.742905" y="222.754339" style="fill: #0000ff; fill-opacity: 0.6; stroke: #0000ff; stroke-opacity: 0.6"/>
     <use xlink:href="#m039ce9b7a1" x="140.444924" y="199.416539" style="fill: #0000ff; fill-opacity: 0.6; stroke: #0000ff; stroke-opacity: 0.6"/>
     <use xlink:href="#m039ce9b7a1" x="159.475752" y="166.175053" style="fill: #0000ff; fill-opacity: 0.6; stroke: #0000ff; stroke-opacity: 0.6"/>
     <use xlink:href="#m039ce9b7a1" x="270.909559" y="94.425366" style="fill: #0000ff; fill-opacity: 0.6; stroke: #0000ff; stroke-opacity: 0.6"/>
     <use xlink:href="#m039ce9b7a1" x="218.524196" y="131.393434" style="fill: #0000ff; fill-opacity: 0.6; stroke: #0000ff; stroke-opacity: 0.6"/>
     <use xlink:href="#m039ce9b7a1" x="63.853619" y="234.410158" style="fill: #0000ff; fill-opacity: 0.6; stroke: #0000ff; stroke-opacity: 0.6"/>
    </g>
   </g>
   <g id="patch_3">
    <path d="M 35.423438 262.86 
L 35.423438 45.6 
" style="fill: none; stroke: #cccccc; stroke-linejoin: miter; stroke-linecap: square"/>
   </g>
   <g id="patch_4">
    <path d="M 343.283437 262.86 
L 343.283437 45.6 
" style="fill: none; stroke: #cccccc; stroke-linejoin: miter; stroke-linecap: square"/>
   </g>
   <g id="patch_5">
    <path d="M 35.423438 262.86 
L 343.283437 262.86 
" style="fill: none; stroke: #cccccc; stroke-linejoin: miter; stroke-linecap: square"/>
   </g>
   <g id="patch_6">
    <path d="M 35.423438 45.6 
L 343.283437 45.6 
" style="fill: none; stroke: #cccccc; stroke-linejoin: miter; stroke-linecap: square"/>
   </g>
   <g id="text_17">
    <!-- Scatter Plot -->
    <g style="fill: #262626" transform="translate(158.340938 39.6) scale(0.12 -0.12)">
     <defs>
      <path id="LiberationSans-53" d="M 3975 1216 
Q 3975 606 3498 271 
Q 3022 -63 2156 -63 
Q 547 -63 291 1056 
L 869 1172 
Q 969 775 1294 589 
Q 1619 403 2178 403 
Q 2756 403 3070 601 
Q 3384 800 3384 1184 
Q 3384 1400 3286 1534 
Q 3188 1669 3009 1756 
Q 2831 1844 2584 1903 
Q 2338 1963 2038 2031 
Q 1516 2147 1245 2262 
Q 975 2378 819 2520 
Q 663 2663 580 2853 
Q 497 3044 497 3291 
Q 497 3856 930 4162 
Q 1363 4469 2169 4469 
Q 2919 4469 3316 4239 
Q 3713 4009 3872 3456 
L 3284 3353 
Q 3188 3703 2916 3861 
Q 2644 4019 2163 4019 
Q 1634 4019 1356 3844 
Q 1078 3669 1078 3322 
Q 1078 3119 1186 2986 
Q 1294 2853 1497 2761 
Q 1700 2669 2306 2534 
Q 2509 2488 2711 2439 
Q 2913 2391 3097 2323 
Q 3281 2256 3442 2165 
Q 3603 2075 3722 1944 
Q 3841 1813 3908 1634 
Q 3975 1456 3975 1216 
z
" transform="scale(0.015625)"/>
      <path id="LiberationSans-63" d="M 859 1706 
Q 859 1031 1071 706 
Q 1284 381 1713 381 
Q 2013 381 2214 543 
Q 2416 706 2463 1044 
L 3031 1006 
Q 2966 519 2616 228 
Q 2266 -63 1728 -63 
Q 1019 -63 645 385 
Q 272 834 272 1694 
Q 272 2547 647 2995 
Q 1022 3444 1722 3444 
Q 2241 3444 2583 3175 
Q 2925 2906 3013 2434 
L 2434 2391 
Q 2391 2672 2212 2837 
Q 2034 3003 1706 3003 
Q 1259 3003 1059 2706 
Q 859 2409 859 1706 
z
" transform="scale(0.015625)"/>
      <path id="LiberationSans-61" d="M 1294 -63 
Q 784 -63 528 206 
Q 272 475 272 944 
Q 272 1469 617 1750 
Q 963 2031 1731 2050 
L 2491 2063 
L 2491 2247 
Q 2491 2659 2316 2837 
Q 2141 3016 1766 3016 
Q 1388 3016 1216 2887 
Q 1044 2759 1009 2478 
L 422 2531 
Q 566 3444 1778 3444 
Q 2416 3444 2737 3151 
Q 3059 2859 3059 2306 
L 3059 850 
Q 3059 600 3125 473 
Q 3191 347 3375 347 
Q 3456 347 3559 369 
L 3559 19 
Q 3347 -31 3125 -31 
Q 2813 -31 2670 133 
Q 2528 297 2509 647 
L 2491 647 
Q 2275 259 1989 98 
Q 1703 -63 1294 -63 
z
M 1422 359 
Q 1731 359 1972 500 
Q 2213 641 2352 886 
Q 2491 1131 2491 1391 
L 2491 1669 
L 1875 1656 
Q 1478 1650 1273 1575 
Q 1069 1500 959 1344 
Q 850 1188 850 934 
Q 850 659 998 509 
Q 1147 359 1422 359 
z
" transform="scale(0.015625)"/>
      <path id="LiberationSans-74" d="M 1731 25 
Q 1453 -50 1163 -50 
Q 488 -50 488 716 
L 488 2972 
L 97 2972 
L 97 3381 
L 509 3381 
L 675 4138 
L 1050 4138 
L 1050 3381 
L 1675 3381 
L 1675 2972 
L 1050 2972 
L 1050 838 
Q 1050 594 1129 495 
Q 1209 397 1406 397 
Q 1519 397 1731 441 
L 1731 25 
z
" transform="scale(0.015625)"/>
      <path id="LiberationSans-65" d="M 863 1572 
Q 863 991 1103 675 
Q 1344 359 1806 359 
Q 2172 359 2392 506 
Q 2613 653 2691 878 
L 3184 738 
Q 2881 -63 1806 -63 
Q 1056 -63 664 384 
Q 272 831 272 1713 
Q 272 2550 664 2997 
Q 1056 3444 1784 3444 
Q 3275 3444 3275 1647 
L 3275 1572 
L 863 1572 
z
M 2694 2003 
Q 2647 2538 2422 2783 
Q 2197 3028 1775 3028 
Q 1366 3028 1127 2754 
Q 888 2481 869 2003 
L 2694 2003 
z
" transform="scale(0.015625)"/>
      <path id="LiberationSans-72" d="M 444 0 
L 444 2594 
Q 444 2950 425 3381 
L 956 3381 
Q 981 2806 981 2691 
L 994 2691 
Q 1128 3125 1303 3284 
Q 1478 3444 1797 3444 
Q 1909 3444 2025 3413 
L 2025 2897 
Q 1913 2928 1725 2928 
Q 1375 2928 1190 2626 
Q 1006 2325 1006 1763 
L 1006 0 
L 444 0 
z
" transform="scale(0.015625)"/>
      <path id="LiberationSans-20" transform="scale(0.015625)"/>
      <path id="LiberationSans-50" d="M 3931 3078 
Q 3931 2453 3523 2084 
Q 3116 1716 2416 1716 
L 1122 1716 
L 1122 0 
L 525 0 
L 525 4403 
L 2378 4403 
Q 3119 4403 3525 4056 
Q 3931 3709 3931 3078 
z
M 3331 3072 
Q 3331 3925 2306 3925 
L 1122 3925 
L 1122 2188 
L 2331 2188 
Q 3331 2188 3331 3072 
z
" transform="scale(0.015625)"/>
      <path id="LiberationSans-6c" d="M 431 0 
L 431 4638 
L 994 4638 
L 994 0 
L 431 0 
z
" transform="scale(0.015625)"/>
      <path id="LiberationSans-6f" d="M 3291 1694 
Q 3291 806 2900 371 
Q 2509 -63 1766 -63 
Q 1025 -63 647 389 
Q 269 841 269 1694 
Q 269 3444 1784 3444 
Q 2559 3444 2925 3017 
Q 3291 2591 3291 1694 
z
M 2700 1694 
Q 2700 2394 2492 2711 
Q 2284 3028 1794 3028 
Q 1300 3028 1079 2704 
Q 859 2381 859 1694 
Q 859 1025 1076 689 
Q 1294 353 1759 353 
Q 2266 353 2483 678 
Q 2700 1003 2700 1694 
z
" transform="scale(0.015625)"/>
     </defs>
     <use xlink:href="#LiberationSans-53"/>
     <use xlink:href="#LiberationSans-63" transform="translate(66.699219 0)"/>
     <use xlink:href="#LiberationSans-61" transform="translate(116.699219 0)"/>
     <use xlink:href="#LiberationSans-74" transform="translate(172.314453 0)"/>
     <use xlink:href="#LiberationSans-74" transform="translate(200.097656 0)"/>
     <use xlink:href="#LiberationSans-65" transform="translate(227.880859 0)"/>
     <use xlink:href="#LiberationSans-72" transform="translate(283.496094 0)"/>
     <use xlink:href="#LiberationSans-20" transform="translate(316.796875 0)"/>
     <use xlink:href="#LiberationSans-50" transform="translate(344.580078 0)"/>
     <use xlink:href="#LiberationSans-6c" transform="translate(411.279297 0)"/>
     <use xlink:href="#LiberationSans-6f" transform="translate(433.496094 0)"/>
     <use xlink:href="#LiberationSans-74" transform="translate(489.111328 0)"/>
    </g>
   </g>
  </g>
  <g id="axes_2">
   <g id="patch_7">
    <path d="M 396.953437 262.86 
L 704.813437 262.86 
L 704.813437 45.6 
L 396.953437 45.6 
z
" style="fill: #ffffff"/>
   </g>
   <g id="matplotlib.axis_3">
    <g id="xtick_10">
     <g id="line2d_29">
      <path d="M 406.046446 262.86 
L 406.046446 45.6 
" clip-path="url(#p078b221e66)" style="fill: none; stroke: #cccccc; stroke-width: 0.8; stroke-linecap: round"/>
     </g>
     <g id="line2d_30"/>
     <g id="text_18">
      <!-- 30 -->
      <g style="fill: #262626" transform="translate(400.485508 273.606875) scale(0.1 -0.1)">
       <defs>
        <path id="LiberationSans-33" d="M 3278 1216 
Q 3278 606 2890 271 
Q 2503 -63 1784 -63 
Q 1116 -63 717 239 
Q 319 541 244 1131 
L 825 1184 
Q 938 403 1784 403 
Q 2209 403 2451 612 
Q 2694 822 2694 1234 
Q 2694 1594 2417 1795 
Q 2141 1997 1619 1997 
L 1300 1997 
L 1300 2484 
L 1606 2484 
Q 2069 2484 2323 2686 
Q 2578 2888 2578 3244 
Q 2578 3597 2370 3801 
Q 2163 4006 1753 4006 
Q 1381 4006 1151 3815 
Q 922 3625 884 3278 
L 319 3322 
Q 381 3863 767 4166 
Q 1153 4469 1759 4469 
Q 2422 4469 2789 4161 
Q 3156 3853 3156 3303 
Q 3156 2881 2920 2617 
Q 2684 2353 2234 2259 
L 2234 2247 
Q 2728 2194 3003 1916 
Q 3278 1638 3278 1216 
z
" transform="scale(0.015625)"/>
       </defs>
       <use xlink:href="#LiberationSans-33"/>
       <use xlink:href="#LiberationSans-30" transform="translate(55.615234 0)"/>
      </g>
     </g>
    </g>
    <g id="xtick_11">
     <g id="line2d_31">
      <path d="M 466.377621 262.86 
L 466.377621 45.6 
" clip-path="url(#p078b221e66)" style="fill: none; stroke: #cccccc; stroke-width: 0.8; stroke-linecap: round"/>
     </g>
     <g id="line2d_32"/>
     <g id="text_19">
      <!-- 40 -->
      <g style="fill: #262626" transform="translate(460.816684 273.606875) scale(0.1 -0.1)">
       <use xlink:href="#LiberationSans-34"/>
       <use xlink:href="#LiberationSans-30" transform="translate(55.615234 0)"/>
      </g>
     </g>
    </g>
    <g id="xtick_12">
     <g id="line2d_33">
      <path d="M 526.708797 262.86 
L 526.708797 45.6 
" clip-path="url(#p078b221e66)" style="fill: none; stroke: #cccccc; stroke-width: 0.8; stroke-linecap: round"/>
     </g>
     <g id="line2d_34"/>
     <g id="text_20">
      <!-- 50 -->
      <g style="fill: #262626" transform="translate(521.14786 273.606875) scale(0.1 -0.1)">
       <use xlink:href="#LiberationSans-35"/>
       <use xlink:href="#LiberationSans-30" transform="translate(55.615234 0)"/>
      </g>
     </g>
    </g>
    <g id="xtick_13">
     <g id="line2d_35">
      <path d="M 587.039973 262.86 
L 587.039973 45.6 
" clip-path="url(#p078b221e66)" style="fill: none; stroke: #cccccc; stroke-width: 0.8; stroke-linecap: round"/>
     </g>
     <g id="line2d_36"/>
     <g id="text_21">
      <!-- 60 -->
      <g style="fill: #262626" transform="translate(581.479035 273.606875) scale(0.1 -0.1)">
       <defs>
        <path id="LiberationSans-36" d="M 3278 1441 
Q 3278 744 2900 340 
Q 2522 -63 1856 -63 
Q 1113 -63 719 490 
Q 325 1044 325 2100 
Q 325 3244 734 3856 
Q 1144 4469 1900 4469 
Q 2897 4469 3156 3572 
L 2619 3475 
Q 2453 4013 1894 4013 
Q 1413 4013 1148 3564 
Q 884 3116 884 2266 
Q 1038 2550 1316 2698 
Q 1594 2847 1953 2847 
Q 2563 2847 2920 2465 
Q 3278 2084 3278 1441 
z
M 2706 1416 
Q 2706 1894 2472 2153 
Q 2238 2413 1819 2413 
Q 1425 2413 1183 2183 
Q 941 1953 941 1550 
Q 941 1041 1192 716 
Q 1444 391 1838 391 
Q 2244 391 2475 664 
Q 2706 938 2706 1416 
z
" transform="scale(0.015625)"/>
       </defs>
       <use xlink:href="#LiberationSans-36"/>
       <use xlink:href="#LiberationSans-30" transform="translate(55.615234 0)"/>
      </g>
     </g>
    </g>
    <g id="xtick_14">
     <g id="line2d_37">
      <path d="M 647.371149 262.86 
L 647.371149 45.6 
" clip-path="url(#p078b221e66)" style="fill: none; stroke: #cccccc; stroke-width: 0.8; stroke-linecap: round"/>
     </g>
     <g id="line2d_38"/>
     <g id="text_22">
      <!-- 70 -->
      <g style="fill: #262626" transform="translate(641.810211 273.606875) scale(0.1 -0.1)">
       <defs>
        <path id="LiberationSans-37" d="M 3238 3947 
Q 2563 2916 2284 2331 
Q 2006 1747 1867 1178 
Q 1728 609 1728 0 
L 1141 0 
Q 1141 844 1498 1776 
Q 1856 2709 2694 3925 
L 328 3925 
L 328 4403 
L 3238 4403 
L 3238 3947 
z
" transform="scale(0.015625)"/>
       </defs>
       <use xlink:href="#LiberationSans-37"/>
       <use xlink:href="#LiberationSans-30" transform="translate(55.615234 0)"/>
      </g>
     </g>
    </g>
    <g id="text_23">
     <!-- Value -->
     <g style="fill: #262626" transform="translate(538.464687 286.92875) scale(0.1 -0.1)">
      <defs>
       <path id="LiberationSans-56" d="M 2444 0 
L 1825 0 
L 28 4403 
L 656 4403 
L 1875 1303 
L 2138 525 
L 2400 1303 
L 3613 4403 
L 4241 4403 
L 2444 0 
z
" transform="scale(0.015625)"/>
       <path id="LiberationSans-75" d="M 981 3381 
L 981 1238 
Q 981 903 1047 718 
Q 1113 534 1256 453 
Q 1400 372 1678 372 
Q 2084 372 2318 650 
Q 2553 928 2553 1422 
L 2553 3381 
L 3116 3381 
L 3116 722 
Q 3116 131 3134 0 
L 2603 0 
Q 2600 16 2597 84 
Q 2594 153 2589 242 
Q 2584 331 2578 578 
L 2569 578 
Q 2375 228 2120 82 
Q 1866 -63 1488 -63 
Q 931 -63 673 214 
Q 416 491 416 1128 
L 416 3381 
L 981 3381 
z
" transform="scale(0.015625)"/>
      </defs>
      <use xlink:href="#LiberationSans-56"/>
      <use xlink:href="#LiberationSans-61" transform="translate(59.324219 0)"/>
      <use xlink:href="#LiberationSans-6c" transform="translate(114.939453 0)"/>
      <use xlink:href="#LiberationSans-75" transform="translate(137.15625 0)"/>
      <use xlink:href="#LiberationSans-65" transform="translate(192.771484 0)"/>
     </g>
    </g>
   </g>
   <g id="matplotlib.axis_4">
    <g id="ytick_6">
     <g id="line2d_39">
      <path d="M 396.953437 262.86 
L 704.813437 262.86 
" clip-path="url(#p078b221e66)" style="fill: none; stroke: #cccccc; stroke-opacity: 0.3; stroke-width: 0.8; stroke-linecap: round"/>
     </g>
     <g id="line2d_40"/>
     <g id="text_24">
      <!-- 0 -->
      <g style="fill: #262626" transform="translate(387.8925 266.483437) scale(0.1 -0.1)">
       <use xlink:href="#LiberationSans-30"/>
      </g>
     </g>
    </g>
    <g id="ytick_7">
     <g id="line2d_41">
      <path d="M 396.953437 236.995714 
L 704.813437 236.995714 
" clip-path="url(#p078b221e66)" style="fill: none; stroke: #cccccc; stroke-opacity: 0.3; stroke-width: 0.8; stroke-linecap: round"/>
     </g>
     <g id="line2d_42"/>
     <g id="text_25">
      <!-- 2 -->
      <g style="fill: #262626" transform="translate(387.8925 240.619152) scale(0.1 -0.1)">
       <use xlink:href="#LiberationSans-32"/>
      </g>
     </g>
    </g>
    <g id="ytick_8">
     <g id="line2d_43">
      <path d="M 396.953437 211.131429 
L 704.813437 211.131429 
" clip-path="url(#p078b221e66)" style="fill: none; stroke: #cccccc; stroke-opacity: 0.3; stroke-width: 0.8; stroke-linecap: round"/>
     </g>
     <g id="line2d_44"/>
     <g id="text_26">
      <!-- 4 -->
      <g style="fill: #262626" transform="translate(387.8925 214.754866) scale(0.1 -0.1)">
       <use xlink:href="#LiberationSans-34"/>
      </g>
     </g>
    </g>
    <g id="ytick_9">
     <g id="line2d_45">
      <path d="M 396.953437 185.267143 
L 704.813437 185.267143 
" clip-path="url(#p078b221e66)" style="fill: none; stroke: #cccccc; stroke-opacity: 0.3; stroke-width: 0.8; stroke-linecap: round"/>
     </g>
     <g id="line2d_46"/>
     <g id="text_27">
      <!-- 6 -->
      <g style="fill: #262626" transform="translate(387.8925 188.89058) scale(0.1 -0.1)">
       <use xlink:href="#LiberationSans-36"/>
      </g>
     </g>
    </g>
    <g id="ytick_10">
     <g id="line2d_47">
      <path d="M 396.953437 159.402857 
L 704.813437 159.402857 
" clip-path="url(#p078b221e66)" style="fill: none; stroke: #cccccc; stroke-opacity: 0.3; stroke-width: 0.8; stroke-linecap: round"/>
     </g>
     <g id="line2d_48"/>
     <g id="text_28">
      <!-- 8 -->
      <g style="fill: #262626" transform="translate(387.8925 163.026295) scale(0.1 -0.1)">
       <defs>
        <path id="LiberationSans-38" d="M 3281 1228 
Q 3281 619 2893 278 
Q 2506 -63 1781 -63 
Q 1075 -63 676 271 
Q 278 606 278 1222 
Q 278 1653 525 1947 
Q 772 2241 1156 2303 
L 1156 2316 
Q 797 2400 589 2681 
Q 381 2963 381 3341 
Q 381 3844 757 4156 
Q 1134 4469 1769 4469 
Q 2419 4469 2795 4162 
Q 3172 3856 3172 3334 
Q 3172 2956 2962 2675 
Q 2753 2394 2391 2322 
L 2391 2309 
Q 2813 2241 3047 1952 
Q 3281 1663 3281 1228 
z
M 2588 3303 
Q 2588 4050 1769 4050 
Q 1372 4050 1164 3862 
Q 956 3675 956 3303 
Q 956 2925 1170 2726 
Q 1384 2528 1775 2528 
Q 2172 2528 2380 2711 
Q 2588 2894 2588 3303 
z
M 2697 1281 
Q 2697 1691 2453 1898 
Q 2209 2106 1769 2106 
Q 1341 2106 1100 1882 
Q 859 1659 859 1269 
Q 859 359 1788 359 
Q 2247 359 2472 579 
Q 2697 800 2697 1281 
z
" transform="scale(0.015625)"/>
       </defs>
       <use xlink:href="#LiberationSans-38"/>
      </g>
     </g>
    </g>
    <g id="ytick_11">
     <g id="line2d_49">
      <path d="M 396.953437 133.538571 
L 704.813437 133.538571 
" clip-path="url(#p078b221e66)" style="fill: none; stroke: #cccccc; stroke-opacity: 0.3; stroke-width: 0.8; stroke-linecap: round"/>
     </g>
     <g id="line2d_50"/>
     <g id="text_29">
      <!-- 10 -->
      <g style="fill: #262626" transform="translate(382.331562 137.162009) scale(0.1 -0.1)">
       <use xlink:href="#LiberationSans-31"/>
       <use xlink:href="#LiberationSans-30" transform="translate(55.615234 0)"/>
      </g>
     </g>
    </g>
    <g id="ytick_12">
     <g id="line2d_51">
      <path d="M 396.953437 107.674286 
L 704.813437 107.674286 
" clip-path="url(#p078b221e66)" style="fill: none; stroke: #cccccc; stroke-opacity: 0.3; stroke-width: 0.8; stroke-linecap: round"/>
     </g>
     <g id="line2d_52"/>
     <g id="text_30">
      <!-- 12 -->
      <g style="fill: #262626" transform="translate(382.331562 111.297723) scale(0.1 -0.1)">
       <use xlink:href="#LiberationSans-31"/>
       <use xlink:href="#LiberationSans-32" transform="translate(55.615234 0)"/>
      </g>
     </g>
    </g>
    <g id="ytick_13">
     <g id="line2d_53">
      <path d="M 396.953437 81.81 
L 704.813437 81.81 
" clip-path="url(#p078b221e66)" style="fill: none; stroke: #cccccc; stroke-opacity: 0.3; stroke-width: 0.8; stroke-linecap: round"/>
     </g>
     <g id="line2d_54"/>
     <g id="text_31">
      <!-- 14 -->
      <g style="fill: #262626" transform="translate(382.331562 85.433437) scale(0.1 -0.1)">
       <use xlink:href="#LiberationSans-31"/>
       <use xlink:href="#LiberationSans-34" transform="translate(55.615234 0)"/>
      </g>
     </g>
    </g>
    <g id="ytick_14">
     <g id="line2d_55">
      <path d="M 396.953437 55.945714 
L 704.813437 55.945714 
" clip-path="url(#p078b221e66)" style="fill: none; stroke: #cccccc; stroke-opacity: 0.3; stroke-width: 0.8; stroke-linecap: round"/>
     </g>
     <g id="line2d_56"/>
     <g id="text_32">
      <!-- 16 -->
      <g style="fill: #262626" transform="translate(382.331562 59.569152) scale(0.1 -0.1)">
       <use xlink:href="#LiberationSans-31"/>
       <use xlink:href="#LiberationSans-36" transform="translate(55.615234 0)"/>
      </g>
     </g>
    </g>
    <g id="text_33">
     <!-- Frequency -->
     <g style="fill: #262626" transform="translate(376.256562 177.851094) rotate(-90) scale(0.1 -0.1)">
      <defs>
       <path id="LiberationSans-46" d="M 1122 3916 
L 1122 2278 
L 3578 2278 
L 3578 1784 
L 1122 1784 
L 1122 0 
L 525 0 
L 525 4403 
L 3653 4403 
L 3653 3916 
L 1122 3916 
z
" transform="scale(0.015625)"/>
       <path id="LiberationSans-71" d="M 1513 -63 
Q 869 -63 569 371 
Q 269 806 269 1675 
Q 269 3444 1513 3444 
Q 1897 3444 2147 3308 
Q 2397 3172 2566 2856 
L 2572 2856 
Q 2572 2950 2584 3179 
Q 2597 3409 2609 3425 
L 3150 3425 
Q 3128 3241 3128 2503 
L 3128 -1328 
L 2566 -1328 
L 2566 44 
L 2578 556 
L 2572 556 
Q 2403 222 2156 79 
Q 1909 -63 1513 -63 
z
M 2566 1731 
Q 2566 2391 2350 2709 
Q 2134 3028 1663 3028 
Q 1234 3028 1046 2709 
Q 859 2391 859 1694 
Q 859 984 1048 678 
Q 1238 372 1656 372 
Q 2134 372 2350 712 
Q 2566 1053 2566 1731 
z
" transform="scale(0.015625)"/>
       <path id="LiberationSans-6e" d="M 2578 0 
L 2578 2144 
Q 2578 2478 2512 2662 
Q 2447 2847 2303 2928 
Q 2159 3009 1881 3009 
Q 1475 3009 1240 2731 
Q 1006 2453 1006 1959 
L 1006 0 
L 444 0 
L 444 2659 
Q 444 3250 425 3381 
L 956 3381 
Q 959 3366 962 3297 
Q 966 3228 970 3139 
Q 975 3050 981 2803 
L 991 2803 
Q 1184 3153 1439 3298 
Q 1694 3444 2072 3444 
Q 2628 3444 2886 3167 
Q 3144 2891 3144 2253 
L 3144 0 
L 2578 0 
z
" transform="scale(0.015625)"/>
       <path id="LiberationSans-79" d="M 597 -1328 
Q 366 -1328 209 -1294 
L 209 -872 
Q 328 -891 472 -891 
Q 997 -891 1303 -119 
L 1356 16 
L 16 3381 
L 616 3381 
L 1328 1513 
Q 1344 1469 1366 1408 
Q 1388 1347 1506 1000 
Q 1625 653 1634 613 
L 1853 1228 
L 2594 3381 
L 3188 3381 
L 1888 0 
Q 1678 -541 1497 -805 
Q 1316 -1069 1095 -1198 
Q 875 -1328 597 -1328 
z
" transform="scale(0.015625)"/>
      </defs>
      <use xlink:href="#LiberationSans-46"/>
      <use xlink:href="#LiberationSans-72" transform="translate(61.083984 0)"/>
      <use xlink:href="#LiberationSans-65" transform="translate(94.384766 0)"/>
      <use xlink:href="#LiberationSans-71" transform="translate(150 0)"/>
      <use xlink:href="#LiberationSans-75" transform="translate(205.615234 0)"/>
      <use xlink:href="#LiberationSans-65" transform="translate(261.230469 0)"/>
      <use xlink:href="#LiberationSans-6e" transform="translate(316.845703 0)"/>
      <use xlink:href="#LiberationSans-63" transform="translate(372.460938 0)"/>
      <use xlink:href="#LiberationSans-79" transform="translate(422.460938 0)"/>
     </g>
    </g>
   </g>
   <g id="patch_8">
    <path d="M 410.947074 262.86 
L 424.94071 262.86 
L 424.94071 249.927857 
L 410.947074 249.927857 
z
" clip-path="url(#p078b221e66)" style="fill: #008000; opacity: 0.7; stroke: #000000; stroke-linejoin: miter"/>
   </g>
   <g id="patch_9">
    <path d="M 424.94071 262.86 
L 438.934347 262.86 
L 438.934347 224.063571 
L 424.94071 224.063571 
z
" clip-path="url(#p078b221e66)" style="fill: #008000; opacity: 0.7; stroke: #000000; stroke-linejoin: miter"/>
   </g>
   <g id="patch_10">
    <path d="M 438.934347 262.86 
L 452.927983 262.86 
L 452.927983 185.267143 
L 438.934347 185.267143 
z
" clip-path="url(#p078b221e66)" style="fill: #008000; opacity: 0.7; stroke: #000000; stroke-linejoin: miter"/>
   </g>
   <g id="patch_11">
    <path d="M 452.927983 262.86 
L 466.921619 262.86 
L 466.921619 198.199286 
L 452.927983 198.199286 
z
" clip-path="url(#p078b221e66)" style="fill: #008000; opacity: 0.7; stroke: #000000; stroke-linejoin: miter"/>
   </g>
   <g id="patch_12">
    <path d="M 466.921619 262.86 
L 480.915256 262.86 
L 480.915256 107.674286 
L 466.921619 107.674286 
z
" clip-path="url(#p078b221e66)" style="fill: #008000; opacity: 0.7; stroke: #000000; stroke-linejoin: miter"/>
   </g>
   <g id="patch_13">
    <path d="M 480.915256 262.86 
L 494.908892 262.86 
L 494.908892 211.131429 
L 480.915256 211.131429 
z
" clip-path="url(#p078b221e66)" style="fill: #008000; opacity: 0.7; stroke: #000000; stroke-linejoin: miter"/>
   </g>
   <g id="patch_14">
    <path d="M 494.908892 262.86 
L 508.902528 262.86 
L 508.902528 198.199286 
L 494.908892 198.199286 
z
" clip-path="url(#p078b221e66)" style="fill: #008000; opacity: 0.7; stroke: #000000; stroke-linejoin: miter"/>
   </g>
   <g id="patch_15">
    <path d="M 508.902528 262.86 
L 522.896165 262.86 
L 522.896165 159.402857 
L 508.902528 159.402857 
z
" clip-path="url(#p078b221e66)" style="fill: #008000; opacity: 0.7; stroke: #000000; stroke-linejoin: miter"/>
   </g>
   <g id="patch_16">
    <path d="M 522.896165 262.86 
L 536.889801 262.86 
L 536.889801 159.402857 
L 522.896165 159.402857 
z
" clip-path="url(#p078b221e66)" style="fill: #008000; opacity: 0.7; stroke: #000000; stroke-linejoin: miter"/>
   </g>
   <g id="patch_17">
    <path d="M 536.889801 262.86 
L 550.883438 262.86 
L 550.883438 55.945714 
L 536.889801 55.945714 
z
" clip-path="url(#p078b221e66)" style="fill: #008000; opacity: 0.7; stroke: #000000; stroke-linejoin: miter"/>
   </g>
   <g id="patch_18">
    <path d="M 550.883437 262.86 
L 564.877074 262.86 
L 564.877074 146.470714 
L 550.883437 146.470714 
z
" clip-path="url(#p078b221e66)" style="fill: #008000; opacity: 0.7; stroke: #000000; stroke-linejoin: miter"/>
   </g>
   <g id="patch_19">
    <path d="M 564.877074 262.86 
L 578.87071 262.86 
L 578.87071 133.538571 
L 564.877074 133.538571 
z
" clip-path="url(#p078b221e66)" style="fill: #008000; opacity: 0.7; stroke: #000000; stroke-linejoin: miter"/>
   </g>
   <g id="patch_20">
    <path d="M 578.87071 262.86 
L 592.864347 262.86 
L 592.864347 249.927857 
L 578.87071 249.927857 
z
" clip-path="url(#p078b221e66)" style="fill: #008000; opacity: 0.7; stroke: #000000; stroke-linejoin: miter"/>
   </g>
   <g id="patch_21">
    <path d="M 592.864347 262.86 
L 606.857983 262.86 
L 606.857983 224.063571 
L 592.864347 224.063571 
z
" clip-path="url(#p078b221e66)" style="fill: #008000; opacity: 0.7; stroke: #000000; stroke-linejoin: miter"/>
   </g>
   <g id="patch_22">
    <path d="M 606.857983 262.86 
L 620.851619 262.86 
L 620.851619 224.063571 
L 606.857983 224.063571 
z
" clip-path="url(#p078b221e66)" style="fill: #008000; opacity: 0.7; stroke: #000000; stroke-linejoin: miter"/>
   </g>
   <g id="patch_23">
    <path d="M 620.851619 262.86 
L 634.845256 262.86 
L 634.845256 262.86 
L 620.851619 262.86 
z
" clip-path="url(#p078b221e66)" style="fill: #008000; opacity: 0.7; stroke: #000000; stroke-linejoin: miter"/>
   </g>
   <g id="patch_24">
    <path d="M 634.845256 262.86 
L 648.838892 262.86 
L 648.838892 224.063571 
L 634.845256 224.063571 
z
" clip-path="url(#p078b221e66)" style="fill: #008000; opacity: 0.7; stroke: #000000; stroke-linejoin: miter"/>
   </g>
   <g id="patch_25">
    <path d="M 648.838892 262.86 
L 662.832528 262.86 
L 662.832528 249.927857 
L 648.838892 249.927857 
z
" clip-path="url(#p078b221e66)" style="fill: #008000; opacity: 0.7; stroke: #000000; stroke-linejoin: miter"/>
   </g>
   <g id="patch_26">
    <path d="M 662.832528 262.86 
L 676.826165 262.86 
L 676.826165 249.927857 
L 662.832528 249.927857 
z
" clip-path="url(#p078b221e66)" style="fill: #008000; opacity: 0.7; stroke: #000000; stroke-linejoin: miter"/>
   </g>
   <g id="patch_27">
    <path d="M 676.826165 262.86 
L 690.819801 262.86 
L 690.819801 249.927857 
L 676.826165 249.927857 
z
" clip-path="url(#p078b221e66)" style="fill: #008000; opacity: 0.7; stroke: #000000; stroke-linejoin: miter"/>
   </g>
   <g id="patch_28">
    <path d="M 396.953437 262.86 
L 396.953437 45.6 
" style="fill: none; stroke: #cccccc; stroke-linejoin: miter; stroke-linecap: square"/>
   </g>
   <g id="patch_29">
    <path d="M 704.813437 262.86 
L 704.813437 45.6 
" style="fill: none; stroke: #cccccc; stroke-linejoin: miter; stroke-linecap: square"/>
   </g>
   <g id="patch_30">
    <path d="M 396.953437 262.86 
L 704.813437 262.86 
" style="fill: none; stroke: #cccccc; stroke-linejoin: miter; stroke-linecap: square"/>
   </g>
   <g id="patch_31">
    <path d="M 396.953437 45.6 
L 704.813437 45.6 
" style="fill: none; stroke: #cccccc; stroke-linejoin: miter; stroke-linecap: square"/>
   </g>
   <g id="text_34">
    <!-- Histogram -->
    <g style="fill: #262626" transform="translate(523.545 39.6) scale(0.12 -0.12)">
     <defs>
      <path id="LiberationSans-48" d="M 3503 0 
L 3503 2041 
L 1122 2041 
L 1122 0 
L 525 0 
L 525 4403 
L 1122 4403 
L 1122 2541 
L 3503 2541 
L 3503 4403 
L 4100 4403 
L 4100 0 
L 3503 0 
z
" transform="scale(0.015625)"/>
      <path id="LiberationSans-69" d="M 428 4100 
L 428 4638 
L 991 4638 
L 991 4100 
L 428 4100 
z
M 428 0 
L 428 3381 
L 991 3381 
L 991 0 
L 428 0 
z
" transform="scale(0.015625)"/>
      <path id="LiberationSans-73" d="M 2969 934 
Q 2969 456 2608 196 
Q 2247 -63 1597 -63 
Q 966 -63 623 145 
Q 281 353 178 794 
L 675 891 
Q 747 619 972 492 
Q 1197 366 1597 366 
Q 2025 366 2223 497 
Q 2422 628 2422 891 
Q 2422 1091 2284 1216 
Q 2147 1341 1841 1422 
L 1438 1528 
Q 953 1653 748 1773 
Q 544 1894 428 2066 
Q 313 2238 313 2488 
Q 313 2950 642 3192 
Q 972 3434 1603 3434 
Q 2163 3434 2492 3237 
Q 2822 3041 2909 2606 
L 2403 2544 
Q 2356 2769 2151 2889 
Q 1947 3009 1603 3009 
Q 1222 3009 1040 2893 
Q 859 2778 859 2544 
Q 859 2400 934 2306 
Q 1009 2213 1156 2147 
Q 1303 2081 1775 1966 
Q 2222 1853 2419 1758 
Q 2616 1663 2730 1547 
Q 2844 1431 2906 1279 
Q 2969 1128 2969 934 
z
" transform="scale(0.015625)"/>
      <path id="LiberationSans-67" d="M 1713 -1328 
Q 1159 -1328 831 -1111 
Q 503 -894 409 -494 
L 975 -413 
Q 1031 -647 1223 -773 
Q 1416 -900 1728 -900 
Q 2569 -900 2569 84 
L 2569 628 
L 2563 628 
Q 2403 303 2125 139 
Q 1847 -25 1475 -25 
Q 853 -25 561 387 
Q 269 800 269 1684 
Q 269 2581 583 3007 
Q 897 3434 1538 3434 
Q 1897 3434 2161 3270 
Q 2425 3106 2569 2803 
L 2575 2803 
Q 2575 2897 2587 3128 
Q 2600 3359 2613 3381 
L 3147 3381 
Q 3128 3213 3128 2681 
L 3128 97 
Q 3128 -1328 1713 -1328 
z
M 2569 1691 
Q 2569 2103 2456 2401 
Q 2344 2700 2139 2858 
Q 1934 3016 1675 3016 
Q 1244 3016 1047 2703 
Q 850 2391 850 1691 
Q 850 997 1034 694 
Q 1219 391 1666 391 
Q 1931 391 2137 547 
Q 2344 703 2456 995 
Q 2569 1288 2569 1691 
z
" transform="scale(0.015625)"/>
      <path id="LiberationSans-6d" d="M 2400 0 
L 2400 2144 
Q 2400 2634 2265 2821 
Q 2131 3009 1781 3009 
Q 1422 3009 1212 2734 
Q 1003 2459 1003 1959 
L 1003 0 
L 444 0 
L 444 2659 
Q 444 3250 425 3381 
L 956 3381 
Q 959 3366 962 3297 
Q 966 3228 970 3139 
Q 975 3050 981 2803 
L 991 2803 
Q 1172 3163 1406 3303 
Q 1641 3444 1978 3444 
Q 2363 3444 2586 3291 
Q 2809 3138 2897 2803 
L 2906 2803 
Q 3081 3144 3329 3294 
Q 3578 3444 3931 3444 
Q 4444 3444 4676 3166 
Q 4909 2888 4909 2253 
L 4909 0 
L 4353 0 
L 4353 2144 
Q 4353 2634 4218 2821 
Q 4084 3009 3734 3009 
Q 3366 3009 3161 2736 
Q 2956 2463 2956 1959 
L 2956 0 
L 2400 0 
z
" transform="scale(0.015625)"/>
     </defs>
     <use xlink:href="#LiberationSans-48"/>
     <use xlink:href="#LiberationSans-69" transform="translate(72.216797 0)"/>
     <use xlink:href="#LiberationSans-73" transform="translate(94.433594 0)"/>
     <use xlink:href="#LiberationSans-74" transform="translate(144.433594 0)"/>
     <use xlink:href="#LiberationSans-6f" transform="translate(172.216797 0)"/>
     <use xlink:href="#LiberationSans-67" transform="translate(227.832031 0)"/>
     <use xlink:href="#LiberationSans-72" transform="translate(283.447266 0)"/>
     <use xlink:href="#LiberationSans-61" transform="translate(316.748047 0)"/>
     <use xlink:href="#LiberationSans-6d" transform="translate(372.363281 0)"/>
    </g>
   </g>
  </g>
  <g id="axes_3">
   <g id="patch_32">
    <path d="M 35.423438 533.22 
L 343.283437 533.22 
L 343.283437 315.96 
L 35.423438 315.96 
z
" style="fill: #ffffff"/>
   </g>
   <g id="matplotlib.axis_5">
    <g id="xtick_15">
     <g id="line2d_57">
      <path d="M 78.877361 533.22 
L 78.877361 315.96 
" clip-path="url(#p8713ea2b8f)" style="fill: none; stroke: #cccccc; stroke-width: 0.8; stroke-linecap: round"/>
     </g>
     <g id="line2d_58"/>
     <g id="text_35">
      <!-- A -->
      <g style="fill: #262626" transform="translate(75.542205 543.966875) scale(0.1 -0.1)">
       <defs>
        <path id="LiberationSans-41" d="M 3647 0 
L 3144 1288 
L 1138 1288 
L 631 0 
L 13 0 
L 1809 4403 
L 2488 4403 
L 4256 0 
L 3647 0 
z
M 2141 3953 
L 2113 3866 
Q 2034 3606 1881 3200 
L 1319 1753 
L 2966 1753 
L 2400 3206 
Q 2313 3422 2225 3694 
L 2141 3953 
z
" transform="scale(0.015625)"/>
       </defs>
       <use xlink:href="#LiberationSans-41"/>
      </g>
     </g>
    </g>
    <g id="xtick_16">
     <g id="line2d_59">
      <path d="M 152.528079 533.22 
L 152.528079 315.96 
" clip-path="url(#p8713ea2b8f)" style="fill: none; stroke: #cccccc; stroke-width: 0.8; stroke-linecap: round"/>
     </g>
     <g id="line2d_60"/>
     <g id="text_36">
      <!-- B -->
      <g style="fill: #262626" transform="translate(149.192922 543.966875) scale(0.1 -0.1)">
       <defs>
        <path id="LiberationSans-42" d="M 3931 1241 
Q 3931 653 3503 326 
Q 3075 0 2313 0 
L 525 0 
L 525 4403 
L 2125 4403 
Q 3675 4403 3675 3334 
Q 3675 2944 3456 2678 
Q 3238 2413 2838 2322 
Q 3363 2259 3647 1970 
Q 3931 1681 3931 1241 
z
M 3075 3263 
Q 3075 3619 2831 3772 
Q 2588 3925 2125 3925 
L 1122 3925 
L 1122 2531 
L 2125 2531 
Q 2603 2531 2839 2711 
Q 3075 2891 3075 3263 
z
M 3328 1288 
Q 3328 2066 2234 2066 
L 1122 2066 
L 1122 478 
L 2281 478 
Q 2828 478 3078 681 
Q 3328 884 3328 1288 
z
" transform="scale(0.015625)"/>
       </defs>
       <use xlink:href="#LiberationSans-42"/>
      </g>
     </g>
    </g>
    <g id="xtick_17">
     <g id="line2d_61">
      <path d="M 226.178796 533.22 
L 226.178796 315.96 
" clip-path="url(#p8713ea2b8f)" style="fill: none; stroke: #cccccc; stroke-width: 0.8; stroke-linecap: round"/>
     </g>
     <g id="line2d_62"/>
     <g id="text_37">
      <!-- C -->
      <g style="fill: #262626" transform="translate(222.567859 543.966875) scale(0.1 -0.1)">
       <defs>
        <path id="LiberationSans-43" d="M 2475 3981 
Q 1744 3981 1337 3511 
Q 931 3041 931 2222 
Q 931 1413 1354 920 
Q 1778 428 2500 428 
Q 3425 428 3891 1344 
L 4378 1100 
Q 4106 531 3614 234 
Q 3122 -63 2472 -63 
Q 1806 -63 1320 214 
Q 834 491 579 1005 
Q 325 1519 325 2222 
Q 325 3275 894 3872 
Q 1463 4469 2469 4469 
Q 3172 4469 3644 4194 
Q 4116 3919 4338 3378 
L 3772 3191 
Q 3619 3575 3280 3778 
Q 2941 3981 2475 3981 
z
" transform="scale(0.015625)"/>
       </defs>
       <use xlink:href="#LiberationSans-43"/>
      </g>
     </g>
    </g>
    <g id="xtick_18">
     <g id="line2d_63">
      <path d="M 299.829514 533.22 
L 299.829514 315.96 
" clip-path="url(#p8713ea2b8f)" style="fill: none; stroke: #cccccc; stroke-width: 0.8; stroke-linecap: round"/>
     </g>
     <g id="line2d_64"/>
     <g id="text_38">
      <!-- D -->
      <g style="fill: #262626" transform="translate(296.218577 543.966875) scale(0.1 -0.1)">
       <defs>
        <path id="LiberationSans-44" d="M 4316 2247 
Q 4316 1566 4050 1055 
Q 3784 544 3296 272 
Q 2809 0 2172 0 
L 525 0 
L 525 4403 
L 1981 4403 
Q 3100 4403 3708 3842 
Q 4316 3281 4316 2247 
z
M 3716 2247 
Q 3716 3066 3267 3495 
Q 2819 3925 1969 3925 
L 1122 3925 
L 1122 478 
L 2103 478 
Q 2588 478 2955 690 
Q 3322 903 3519 1303 
Q 3716 1703 3716 2247 
z
" transform="scale(0.015625)"/>
       </defs>
       <use xlink:href="#LiberationSans-44"/>
      </g>
     </g>
    </g>
    <g id="text_39">
     <!-- Category -->
     <g style="fill: #262626" transform="translate(169.066719 557.28875) scale(0.1 -0.1)">
      <use xlink:href="#LiberationSans-43"/>
      <use xlink:href="#LiberationSans-61" transform="translate(72.216797 0)"/>
      <use xlink:href="#LiberationSans-74" transform="translate(127.832031 0)"/>
      <use xlink:href="#LiberationSans-65" transform="translate(155.615234 0)"/>
      <use xlink:href="#LiberationSans-67" transform="translate(211.230469 0)"/>
      <use xlink:href="#LiberationSans-6f" transform="translate(266.845703 0)"/>
      <use xlink:href="#LiberationSans-72" transform="translate(322.460938 0)"/>
      <use xlink:href="#LiberationSans-79" transform="translate(355.761719 0)"/>
     </g>
    </g>
   </g>
   <g id="matplotlib.axis_6">
    <g id="ytick_15">
     <g id="line2d_65">
      <path d="M 35.423438 533.22 
L 343.283437 533.22 
" clip-path="url(#p8713ea2b8f)" style="fill: none; stroke: #cccccc; stroke-opacity: 0.3; stroke-width: 0.8; stroke-linecap: round"/>
     </g>
     <g id="line2d_66"/>
     <g id="text_40">
      <!-- 0 -->
      <g style="fill: #262626" transform="translate(26.3625 536.843437) scale(0.1 -0.1)">
       <use xlink:href="#LiberationSans-30"/>
      </g>
     </g>
    </g>
    <g id="ytick_16">
     <g id="line2d_67">
      <path d="M 35.423438 503.660816 
L 343.283437 503.660816 
" clip-path="url(#p8713ea2b8f)" style="fill: none; stroke: #cccccc; stroke-opacity: 0.3; stroke-width: 0.8; stroke-linecap: round"/>
     </g>
     <g id="line2d_68"/>
     <g id="text_41">
      <!-- 5 -->
      <g style="fill: #262626" transform="translate(26.3625 507.284254) scale(0.1 -0.1)">
       <use xlink:href="#LiberationSans-35"/>
      </g>
     </g>
    </g>
    <g id="ytick_17">
     <g id="line2d_69">
      <path d="M 35.423438 474.101633 
L 343.283437 474.101633 
" clip-path="url(#p8713ea2b8f)" style="fill: none; stroke: #cccccc; stroke-opacity: 0.3; stroke-width: 0.8; stroke-linecap: round"/>
     </g>
     <g id="line2d_70"/>
     <g id="text_42">
      <!-- 10 -->
      <g style="fill: #262626" transform="translate(20.801563 477.72507) scale(0.1 -0.1)">
       <use xlink:href="#LiberationSans-31"/>
       <use xlink:href="#LiberationSans-30" transform="translate(55.615234 0)"/>
      </g>
     </g>
    </g>
    <g id="ytick_18">
     <g id="line2d_71">
      <path d="M 35.423438 444.542449 
L 343.283437 444.542449 
" clip-path="url(#p8713ea2b8f)" style="fill: none; stroke: #cccccc; stroke-opacity: 0.3; stroke-width: 0.8; stroke-linecap: round"/>
     </g>
     <g id="line2d_72"/>
     <g id="text_43">
      <!-- 15 -->
      <g style="fill: #262626" transform="translate(20.801563 448.165886) scale(0.1 -0.1)">
       <use xlink:href="#LiberationSans-31"/>
       <use xlink:href="#LiberationSans-35" transform="translate(55.615234 0)"/>
      </g>
     </g>
    </g>
    <g id="ytick_19">
     <g id="line2d_73">
      <path d="M 35.423438 414.983265 
L 343.283437 414.983265 
" clip-path="url(#p8713ea2b8f)" style="fill: none; stroke: #cccccc; stroke-opacity: 0.3; stroke-width: 0.8; stroke-linecap: round"/>
     </g>
     <g id="line2d_74"/>
     <g id="text_44">
      <!-- 20 -->
      <g style="fill: #262626" transform="translate(20.801563 418.606703) scale(0.1 -0.1)">
       <use xlink:href="#LiberationSans-32"/>
       <use xlink:href="#LiberationSans-30" transform="translate(55.615234 0)"/>
      </g>
     </g>
    </g>
    <g id="ytick_20">
     <g id="line2d_75">
      <path d="M 35.423438 385.424082 
L 343.283437 385.424082 
" clip-path="url(#p8713ea2b8f)" style="fill: none; stroke: #cccccc; stroke-opacity: 0.3; stroke-width: 0.8; stroke-linecap: round"/>
     </g>
     <g id="line2d_76"/>
     <g id="text_45">
      <!-- 25 -->
      <g style="fill: #262626" transform="translate(20.801563 389.047519) scale(0.1 -0.1)">
       <use xlink:href="#LiberationSans-32"/>
       <use xlink:href="#LiberationSans-35" transform="translate(55.615234 0)"/>
      </g>
     </g>
    </g>
    <g id="ytick_21">
     <g id="line2d_77">
      <path d="M 35.423438 355.864898 
L 343.283437 355.864898 
" clip-path="url(#p8713ea2b8f)" style="fill: none; stroke: #cccccc; stroke-opacity: 0.3; stroke-width: 0.8; stroke-linecap: round"/>
     </g>
     <g id="line2d_78"/>
     <g id="text_46">
      <!-- 30 -->
      <g style="fill: #262626" transform="translate(20.801563 359.488335) scale(0.1 -0.1)">
       <use xlink:href="#LiberationSans-33"/>
       <use xlink:href="#LiberationSans-30" transform="translate(55.615234 0)"/>
      </g>
     </g>
    </g>
    <g id="ytick_22">
     <g id="line2d_79">
      <path d="M 35.423438 326.305714 
L 343.283437 326.305714 
" clip-path="url(#p8713ea2b8f)" style="fill: none; stroke: #cccccc; stroke-opacity: 0.3; stroke-width: 0.8; stroke-linecap: round"/>
     </g>
     <g id="line2d_80"/>
     <g id="text_47">
      <!-- 35 -->
      <g style="fill: #262626" transform="translate(20.801563 329.929152) scale(0.1 -0.1)">
       <use xlink:href="#LiberationSans-33"/>
       <use xlink:href="#LiberationSans-35" transform="translate(55.615234 0)"/>
      </g>
     </g>
    </g>
    <g id="text_48">
     <!-- Value -->
     <g style="fill: #262626" transform="translate(14.726563 437.00875) rotate(-90) scale(0.1 -0.1)">
      <use xlink:href="#LiberationSans-56"/>
      <use xlink:href="#LiberationSans-61" transform="translate(59.324219 0)"/>
      <use xlink:href="#LiberationSans-6c" transform="translate(114.939453 0)"/>
      <use xlink:href="#LiberationSans-75" transform="translate(137.15625 0)"/>
      <use xlink:href="#LiberationSans-65" transform="translate(192.771484 0)"/>
     </g>
    </g>
   </g>
   <g id="patch_33">
    <path d="M 49.417074 533.22 
L 108.337648 533.22 
L 108.337648 444.542449 
L 49.417074 444.542449 
z
" clip-path="url(#p8713ea2b8f)" style="fill: #ffa500; opacity: 0.7; stroke: #000000; stroke-linejoin: miter"/>
   </g>
   <g id="patch_34">
    <path d="M 123.067792 533.22 
L 181.988366 533.22 
L 181.988366 385.424082 
L 123.067792 385.424082 
z
" clip-path="url(#p8713ea2b8f)" style="fill: #ffa500; opacity: 0.7; stroke: #000000; stroke-linejoin: miter"/>
   </g>
   <g id="patch_35">
    <path d="M 196.718509 533.22 
L 255.639083 533.22 
L 255.639083 326.305714 
L 196.718509 326.305714 
z
" clip-path="url(#p8713ea2b8f)" style="fill: #ffa500; opacity: 0.7; stroke: #000000; stroke-linejoin: miter"/>
   </g>
   <g id="patch_36">
    <path d="M 270.369227 533.22 
L 329.289801 533.22 
L 329.289801 414.983265 
L 270.369227 414.983265 
z
" clip-path="url(#p8713ea2b8f)" style="fill: #ffa500; opacity: 0.7; stroke: #000000; stroke-linejoin: miter"/>
   </g>
   <g id="patch_37">
    <path d="M 35.423438 533.22 
L 35.423438 315.96 
" style="fill: none; stroke: #cccccc; stroke-linejoin: miter; stroke-linecap: square"/>
   </g>
   <g id="patch_38">
    <path d="M 343.283437 533.22 
L 343.283437 315.96 
" style="fill: none; stroke: #cccccc; stroke-linejoin: miter; stroke-linecap: square"/>
   </g>
   <g id="patch_39">
    <path d="M 35.423438 533.22 
L 343.283437 533.22 
" style="fill: none; stroke: #cccccc; stroke-linejoin: miter; stroke-linecap: square"/>
   </g>
   <g id="patch_40">
    <path d="M 35.423438 315.96 
L 343.283437 315.96 
" style="fill: none; stroke: #cccccc; stroke-linejoin: miter; stroke-linecap: square"/>
   </g>
   <g id="text_49">
    <!-- Bar Chart -->
    <g style="fill: #262626" transform="translate(163.679063 309.96) scale(0.12 -0.12)">
     <defs>
      <path id="LiberationSans-68" d="M 991 2803 
Q 1172 3134 1426 3289 
Q 1681 3444 2072 3444 
Q 2622 3444 2883 3170 
Q 3144 2897 3144 2253 
L 3144 0 
L 2578 0 
L 2578 2144 
Q 2578 2500 2512 2673 
Q 2447 2847 2297 2928 
Q 2147 3009 1881 3009 
Q 1484 3009 1245 2734 
Q 1006 2459 1006 1994 
L 1006 0 
L 444 0 
L 444 4638 
L 1006 4638 
L 1006 3431 
Q 1006 3241 995 3037 
Q 984 2834 981 2803 
L 991 2803 
z
" transform="scale(0.015625)"/>
     </defs>
     <use xlink:href="#LiberationSans-42"/>
     <use xlink:href="#LiberationSans-61" transform="translate(66.699219 0)"/>
     <use xlink:href="#LiberationSans-72" transform="translate(122.314453 0)"/>
     <use xlink:href="#LiberationSans-20" transform="translate(155.615234 0)"/>
     <use xlink:href="#LiberationSans-43" transform="translate(183.398438 0)"/>
     <use xlink:href="#LiberationSans-68" transform="translate(255.615234 0)"/>
     <use xlink:href="#LiberationSans-61" transform="translate(311.230469 0)"/>
     <use xlink:href="#LiberationSans-72" transform="translate(366.845703 0)"/>
     <use xlink:href="#LiberationSans-74" transform="translate(400.146484 0)"/>
    </g>
   </g>
  </g>
  <g id="axes_4">
   <g id="patch_41">
    <path d="M 396.953437 533.22 
L 704.813437 533.22 
L 704.813437 315.96 
L 396.953437 315.96 
z
" style="fill: #ffffff"/>
   </g>
   <g id="matplotlib.axis_7">
    <g id="xtick_19">
     <g id="line2d_81">
      <path d="M 410.947074 533.22 
L 410.947074 315.96 
" clip-path="url(#pe50a1d21c2)" style="fill: none; stroke: #cccccc; stroke-opacity: 0.3; stroke-width: 0.8; stroke-linecap: round"/>
     </g>
     <g id="line2d_82"/>
     <g id="text_50">
      <!-- 0 -->
      <g style="fill: #262626" transform="translate(408.166605 543.966875) scale(0.1 -0.1)">
       <use xlink:href="#LiberationSans-30"/>
      </g>
     </g>
    </g>
    <g id="xtick_20">
     <g id="line2d_83">
      <path d="M 466.921619 533.22 
L 466.921619 315.96 
" clip-path="url(#pe50a1d21c2)" style="fill: none; stroke: #cccccc; stroke-opacity: 0.3; stroke-width: 0.8; stroke-linecap: round"/>
     </g>
     <g id="line2d_84"/>
     <g id="text_51">
      <!-- 2 -->
      <g style="fill: #262626" transform="translate(464.141151 543.966875) scale(0.1 -0.1)">
       <use xlink:href="#LiberationSans-32"/>
      </g>
     </g>
    </g>
    <g id="xtick_21">
     <g id="line2d_85">
      <path d="M 522.896165 533.22 
L 522.896165 315.96 
" clip-path="url(#pe50a1d21c2)" style="fill: none; stroke: #cccccc; stroke-opacity: 0.3; stroke-width: 0.8; stroke-linecap: round"/>
     </g>
     <g id="line2d_86"/>
     <g id="text_52">
      <!-- 4 -->
      <g style="fill: #262626" transform="translate(520.115696 543.966875) scale(0.1 -0.1)">
       <use xlink:href="#LiberationSans-34"/>
      </g>
     </g>
    </g>
    <g id="xtick_22">
     <g id="line2d_87">
      <path d="M 578.87071 533.22 
L 578.87071 315.96 
" clip-path="url(#pe50a1d21c2)" style="fill: none; stroke: #cccccc; stroke-opacity: 0.3; stroke-width: 0.8; stroke-linecap: round"/>
     </g>
     <g id="line2d_88"/>
     <g id="text_53">
      <!-- 6 -->
      <g style="fill: #262626" transform="translate(576.090241 543.966875) scale(0.1 -0.1)">
       <use xlink:href="#LiberationSans-36"/>
      </g>
     </g>
    </g>
    <g id="xtick_23">
     <g id="line2d_89">
      <path d="M 634.845256 533.22 
L 634.845256 315.96 
" clip-path="url(#pe50a1d21c2)" style="fill: none; stroke: #cccccc; stroke-opacity: 0.3; stroke-width: 0.8; stroke-linecap: round"/>
     </g>
     <g id="line2d_90"/>
     <g id="text_54">
      <!-- 8 -->
      <g style="fill: #262626" transform="translate(632.064787 543.966875) scale(0.1 -0.1)">
       <use xlink:href="#LiberationSans-38"/>
      </g>
     </g>
    </g>
    <g id="xtick_24">
     <g id="line2d_91">
      <path d="M 690.819801 533.22 
L 690.819801 315.96 
" clip-path="url(#pe50a1d21c2)" style="fill: none; stroke: #cccccc; stroke-opacity: 0.3; stroke-width: 0.8; stroke-linecap: round"/>
     </g>
     <g id="line2d_92"/>
     <g id="text_55">
      <!-- 10 -->
      <g style="fill: #262626" transform="translate(685.258864 543.966875) scale(0.1 -0.1)">
       <use xlink:href="#LiberationSans-31"/>
       <use xlink:href="#LiberationSans-30" transform="translate(55.615234 0)"/>
      </g>
     </g>
    </g>
    <g id="text_56">
     <!-- X -->
     <g style="fill: #262626" transform="translate(547.548281 557.28875) scale(0.1 -0.1)">
      <use xlink:href="#LiberationSans-58"/>
     </g>
    </g>
   </g>
   <g id="matplotlib.axis_8">
    <g id="ytick_23">
     <g id="line2d_93">
      <path d="M 396.953437 523.405351 
L 704.813437 523.405351 
" clip-path="url(#pe50a1d21c2)" style="fill: none; stroke: #cccccc; stroke-opacity: 0.3; stroke-width: 0.8; stroke-linecap: round"/>
     </g>
     <g id="line2d_94"/>
     <g id="text_57">
      <!-- −1.00 -->
      <g style="fill: #262626" transform="translate(368.151875 527.028789) scale(0.1 -0.1)">
       <use xlink:href="#LiberationSans-2212"/>
       <use xlink:href="#LiberationSans-31" transform="translate(58.398438 0)"/>
       <use xlink:href="#LiberationSans-2e" transform="translate(114.013672 0)"/>
       <use xlink:href="#LiberationSans-30" transform="translate(141.796875 0)"/>
       <use xlink:href="#LiberationSans-30" transform="translate(197.412109 0)"/>
      </g>
     </g>
    </g>
    <g id="ytick_24">
     <g id="line2d_95">
      <path d="M 396.953437 498.705315 
L 704.813437 498.705315 
" clip-path="url(#pe50a1d21c2)" style="fill: none; stroke: #cccccc; stroke-opacity: 0.3; stroke-width: 0.8; stroke-linecap: round"/>
     </g>
     <g id="line2d_96"/>
     <g id="text_58">
      <!-- −0.75 -->
      <g style="fill: #262626" transform="translate(368.151875 502.328752) scale(0.1 -0.1)">
       <use xlink:href="#LiberationSans-2212"/>
       <use xlink:href="#LiberationSans-30" transform="translate(58.398438 0)"/>
       <use xlink:href="#LiberationSans-2e" transform="translate(114.013672 0)"/>
       <use xlink:href="#LiberationSans-37" transform="translate(141.796875 0)"/>
       <use xlink:href="#LiberationSans-35" transform="translate(197.412109 0)"/>
      </g>
     </g>
    </g>
    <g id="ytick_25">
     <g id="line2d_97">
      <path d="M 396.953437 474.005278 
L 704.813437 474.005278 
" clip-path="url(#pe50a1d21c2)" style="fill: none; stroke: #cccccc; stroke-opacity: 0.3; stroke-width: 0.8; stroke-linecap: round"/>
     </g>
     <g id="line2d_98"/>
     <g id="text_59">
      <!-- −0.50 -->
      <g style="fill: #262626" transform="translate(368.151875 477.628715) scale(0.1 -0.1)">
       <use xlink:href="#LiberationSans-2212"/>
       <use xlink:href="#LiberationSans-30" transform="translate(58.398438 0)"/>
       <use xlink:href="#LiberationSans-2e" transform="translate(114.013672 0)"/>
       <use xlink:href="#LiberationSans-35" transform="translate(141.796875 0)"/>
       <use xlink:href="#LiberationSans-30" transform="translate(197.412109 0)"/>
      </g>
     </g>
    </g>
    <g id="ytick_26">
     <g id="line2d_99">
      <path d="M 396.953437 449.305241 
L 704.813437 449.305241 
" clip-path="url(#pe50a1d21c2)" style="fill: none; stroke: #cccccc; stroke-opacity: 0.3; stroke-width: 0.8; stroke-linecap: round"/>
     </g>
     <g id="line2d_100"/>
     <g id="text_60">
      <!-- −0.25 -->
      <g style="fill: #262626" transform="translate(368.151875 452.928679) scale(0.1 -0.1)">
       <use xlink:href="#LiberationSans-2212"/>
       <use xlink:href="#LiberationSans-30" transform="translate(58.398438 0)"/>
       <use xlink:href="#LiberationSans-2e" transform="translate(114.013672 0)"/>
       <use xlink:href="#LiberationSans-32" transform="translate(141.796875 0)"/>
       <use xlink:href="#LiberationSans-35" transform="translate(197.412109 0)"/>
      </g>
     </g>
    </g>
    <g id="ytick_27">
     <g id="line2d_101">
      <path d="M 396.953437 424.605205 
L 704.813437 424.605205 
" clip-path="url(#pe50a1d21c2)" style="fill: none; stroke: #cccccc; stroke-opacity: 0.3; stroke-width: 0.8; stroke-linecap: round"/>
     </g>
     <g id="line2d_102"/>
     <g id="text_61">
      <!-- 0.00 -->
      <g style="fill: #262626" transform="translate(373.9925 428.228642) scale(0.1 -0.1)">
       <use xlink:href="#LiberationSans-30"/>
       <use xlink:href="#LiberationSans-2e" transform="translate(55.615234 0)"/>
       <use xlink:href="#LiberationSans-30" transform="translate(83.398438 0)"/>
       <use xlink:href="#LiberationSans-30" transform="translate(139.013672 0)"/>
      </g>
     </g>
    </g>
    <g id="ytick_28">
     <g id="line2d_103">
      <path d="M 396.953437 399.905168 
L 704.813437 399.905168 
" clip-path="url(#pe50a1d21c2)" style="fill: none; stroke: #cccccc; stroke-opacity: 0.3; stroke-width: 0.8; stroke-linecap: round"/>
     </g>
     <g id="line2d_104"/>
     <g id="text_62">
      <!-- 0.25 -->
      <g style="fill: #262626" transform="translate(373.9925 403.528605) scale(0.1 -0.1)">
       <use xlink:href="#LiberationSans-30"/>
       <use xlink:href="#LiberationSans-2e" transform="translate(55.615234 0)"/>
       <use xlink:href="#LiberationSans-32" transform="translate(83.398438 0)"/>
       <use xlink:href="#LiberationSans-35" transform="translate(139.013672 0)"/>
      </g>
     </g>
    </g>
    <g id="ytick_29">
     <g id="line2d_105">
      <path d="M 396.953437 375.205131 
L 704.813437 375.205131 
" clip-path="url(#pe50a1d21c2)" style="fill: none; stroke: #cccccc; stroke-opacity: 0.3; stroke-width: 0.8; stroke-linecap: round"/>
     </g>
     <g id="line2d_106"/>
     <g id="text_63">
      <!-- 0.50 -->
      <g style="fill: #262626" transform="translate(373.9925 378.828569) scale(0.1 -0.1)">
       <use xlink:href="#LiberationSans-30"/>
       <use xlink:href="#LiberationSans-2e" transform="translate(55.615234 0)"/>
       <use xlink:href="#LiberationSans-35" transform="translate(83.398438 0)"/>
       <use xlink:href="#LiberationSans-30" transform="translate(139.013672 0)"/>
      </g>
     </g>
    </g>
    <g id="ytick_30">
     <g id="line2d_107">
      <path d="M 396.953437 350.505094 
L 704.813437 350.505094 
" clip-path="url(#pe50a1d21c2)" style="fill: none; stroke: #cccccc; stroke-opacity: 0.3; stroke-width: 0.8; stroke-linecap: round"/>
     </g>
     <g id="line2d_108"/>
     <g id="text_64">
      <!-- 0.75 -->
      <g style="fill: #262626" transform="translate(373.9925 354.128532) scale(0.1 -0.1)">
       <use xlink:href="#LiberationSans-30"/>
       <use xlink:href="#LiberationSans-2e" transform="translate(55.615234 0)"/>
       <use xlink:href="#LiberationSans-37" transform="translate(83.398438 0)"/>
       <use xlink:href="#LiberationSans-35" transform="translate(139.013672 0)"/>
      </g>
     </g>
    </g>
    <g id="ytick_31">
     <g id="line2d_109">
      <path d="M 396.953437 325.805058 
L 704.813437 325.805058 
" clip-path="url(#pe50a1d21c2)" style="fill: none; stroke: #cccccc; stroke-opacity: 0.3; stroke-width: 0.8; stroke-linecap: round"/>
     </g>
     <g id="line2d_110"/>
     <g id="text_65">
      <!-- 1.00 -->
      <g style="fill: #262626" transform="translate(373.9925 329.428495) scale(0.1 -0.1)">
       <use xlink:href="#LiberationSans-31"/>
       <use xlink:href="#LiberationSans-2e" transform="translate(55.615234 0)"/>
       <use xlink:href="#LiberationSans-30" transform="translate(83.398438 0)"/>
       <use xlink:href="#LiberationSans-30" transform="translate(139.013672 0)"/>
      </g>
     </g>
    </g>
    <g id="text_66">
     <!-- sin(X) -->
     <g style="fill: #262626" transform="translate(362.076875 437.64625) rotate(-90) scale(0.1 -0.1)">
      <defs>
       <path id="LiberationSans-28" d="M 397 1663 
Q 397 2566 680 3284 
Q 963 4003 1550 4638 
L 2094 4638 
Q 1509 3988 1236 3256 
Q 963 2525 963 1656 
Q 963 791 1233 62 
Q 1503 -666 2094 -1325 
L 1550 -1325 
Q 959 -688 678 32 
Q 397 753 397 1650 
L 397 1663 
z
" transform="scale(0.015625)"/>
       <path id="LiberationSans-29" d="M 1734 1650 
Q 1734 747 1451 28 
Q 1169 -691 581 -1325 
L 38 -1325 
Q 625 -669 897 57 
Q 1169 784 1169 1656 
Q 1169 2528 895 3256 
Q 622 3984 38 4638 
L 581 4638 
Q 1172 4000 1453 3279 
Q 1734 2559 1734 1663 
L 1734 1650 
z
" transform="scale(0.015625)"/>
      </defs>
      <use xlink:href="#LiberationSans-73"/>
      <use xlink:href="#LiberationSans-69" transform="translate(50 0)"/>
      <use xlink:href="#LiberationSans-6e" transform="translate(72.216797 0)"/>
      <use xlink:href="#LiberationSans-28" transform="translate(127.832031 0)"/>
      <use xlink:href="#LiberationSans-58" transform="translate(161.132812 0)"/>
      <use xlink:href="#LiberationSans-29" transform="translate(227.832031 0)"/>
     </g>
    </g>
   </g>
   <g id="line2d_111">
    <path d="M 410.947074 424.605205 
L 413.774071 414.642354 
L 416.601068 404.781068 
L 419.428066 395.121877 
L 422.255063 385.76325 
L 425.08206 376.800591 
L 427.909057 368.325271 
L 430.736055 360.423689 
L 433.563052 353.176397 
L 436.390049 346.657277 
L 439.217046 340.932787 
L 442.044044 336.061284 
L 444.871041 332.09243 
L 447.698038 329.066686 
L 450.525035 327.014896 
L 453.352033 325.957978 
L 456.17903 325.906706 
L 459.006027 326.861603 
L 461.833024 328.812934 
L 464.660022 331.740807 
L 467.487019 335.615374 
L 470.314016 340.397136 
L 473.141013 346.037346 
L 475.968011 352.478506 
L 478.795008 359.654952 
L 481.622005 367.493524 
L 484.449002 375.914314 
L 487.275999 384.831477 
L 490.102997 394.154108 
L 492.929994 403.787169 
L 495.756991 413.632456 
L 498.583988 423.589604 
L 501.410986 433.557105 
L 504.237983 443.433347 
L 507.06498 453.117648 
L 509.891977 462.511283 
L 512.718975 471.518489 
L 515.545972 480.047444 
L 518.372969 488.0112 
L 521.199966 495.328572 
L 524.026964 501.924965 
L 526.853961 507.733131 
L 529.680958 512.69386 
L 532.507955 516.756581 
L 535.334953 519.879877 
L 538.16195 522.031908 
L 540.988947 523.190735 
L 543.815944 523.344545 
L 546.642942 522.49177 
L 549.469939 520.641103 
L 552.296936 517.811411 
L 555.123933 514.031541 
L 557.950931 509.340025 
L 560.777928 503.784692 
L 563.604925 497.422173 
L 566.431922 490.317332 
L 569.25892 482.542597 
L 572.085917 474.177227 
L 574.912914 465.306501 
L 577.739911 456.020851 
L 580.566909 446.414939 
L 583.393906 436.58669 
L 586.220903 426.636298 
L 589.0479 416.6652 
L 591.874898 406.775045 
L 594.701895 397.066658 
L 597.528892 387.639008 
L 600.355889 378.588206 
L 603.182887 370.006517 
L 606.009884 361.981428 
L 608.836881 354.594749 
L 611.663878 347.921782 
L 614.490876 342.030554 
L 617.317873 336.981123 
L 620.14487 332.824963 
L 622.971867 329.604446 
L 625.798864 327.352401 
L 628.625862 326.091787 
L 631.452859 325.835455 
L 634.279856 326.586018 
L 637.106853 328.335825 
L 639.933851 331.067037 
L 642.760848 334.751812 
L 645.587845 339.352585 
L 648.414842 344.822455 
L 651.24184 351.10566 
L 654.068837 358.138146 
L 656.895834 365.848222 
L 659.722831 374.157289 
L 662.549829 382.980639 
L 665.376826 392.228326 
L 668.203823 401.806075 
L 671.03082 411.616247 
L 673.857818 421.558833 
L 676.684815 431.532474 
L 679.511812 441.435497 
L 682.338809 451.166945 
L 685.165807 460.627613 
L 687.992804 469.721055 
L 690.819801 478.35457 
" clip-path="url(#pe50a1d21c2)" style="fill: none; stroke: #ff0000; stroke-width: 2; stroke-linecap: round"/>
   </g>
   <g id="patch_42">
    <path d="M 396.953437 533.22 
L 396.953437 315.96 
" style="fill: none; stroke: #cccccc; stroke-linejoin: miter; stroke-linecap: square"/>
   </g>
   <g id="patch_43">
    <path d="M 704.813437 533.22 
L 704.813437 315.96 
" style="fill: none; stroke: #cccccc; stroke-linejoin: miter; stroke-linecap: square"/>
   </g>
   <g id="patch_44">
    <path d="M 396.953437 533.22 
L 704.813437 533.22 
" style="fill: none; stroke: #cccccc; stroke-linejoin: miter; stroke-linecap: square"/>
   </g>
   <g id="patch_45">
    <path d="M 396.953437 315.96 
L 704.813437 315.96 
" style="fill: none; stroke: #cccccc; stroke-linejoin: miter; stroke-linecap: square"/>
   </g>
   <g id="text_67">
    <!-- Line Plot -->
    <g style="fill: #262626" transform="translate(527.535 309.96) scale(0.12 -0.12)">
     <defs>
      <path id="LiberationSans-4c" d="M 525 0 
L 525 4403 
L 1122 4403 
L 1122 488 
L 3347 488 
L 3347 0 
L 525 0 
z
" transform="scale(0.015625)"/>
     </defs>
     <use xlink:href="#LiberationSans-4c"/>
     <use xlink:href="#LiberationSans-69" transform="translate(55.615234 0)"/>
     <use xlink:href="#LiberationSans-6e" transform="translate(77.832031 0)"/>
     <use xlink:href="#LiberationSans-65" transform="translate(133.447266 0)"/>
     <use xlink:href="#LiberationSans-20" transform="translate(189.0625 0)"/>
     <use xlink:href="#LiberationSans-50" transform="translate(216.845703 0)"/>
     <use xlink:href="#LiberationSans-6c" transform="translate(283.544922 0)"/>
     <use xlink:href="#LiberationSans-6f" transform="translate(305.761719 0)"/>
     <use xlink:href="#LiberationSans-74" transform="translate(361.376953 0)"/>
    </g>
   </g>
  </g>
  <g id="text_68">
   <!-- Multiple Plot Types -->
   <g style="fill: #262626" transform="translate(292.352031 17.345625) scale(0.14 -0.14)">
    <defs>
     <path id="LiberationSans-Bold-4d" d="M 4084 0 
L 4084 2669 
Q 4084 2759 4086 2850 
Q 4088 2941 4116 3628 
Q 3894 2788 3788 2456 
L 2994 0 
L 2338 0 
L 1544 2456 
L 1209 3628 
Q 1247 2903 1247 2669 
L 1247 0 
L 428 0 
L 428 4403 
L 1663 4403 
L 2450 1941 
L 2519 1703 
L 2669 1113 
L 2866 1819 
L 3675 4403 
L 4903 4403 
L 4903 0 
L 4084 0 
z
" transform="scale(0.015625)"/>
     <path id="LiberationSans-Bold-75" d="M 1275 3381 
L 1275 1484 
Q 1275 594 1875 594 
Q 2194 594 2389 867 
Q 2584 1141 2584 1569 
L 2584 3381 
L 3463 3381 
L 3463 756 
Q 3463 325 3488 0 
L 2650 0 
Q 2613 450 2613 672 
L 2597 672 
Q 2422 288 2151 112 
Q 1881 -63 1509 -63 
Q 972 -63 684 267 
Q 397 597 397 1234 
L 397 3381 
L 1275 3381 
z
" transform="scale(0.015625)"/>
     <path id="LiberationSans-Bold-6c" d="M 447 0 
L 447 4638 
L 1325 4638 
L 1325 0 
L 447 0 
z
" transform="scale(0.015625)"/>
     <path id="LiberationSans-Bold-74" d="M 1313 -56 
Q 925 -56 715 155 
Q 506 366 506 794 
L 506 2788 
L 78 2788 
L 78 3381 
L 550 3381 
L 825 4175 
L 1375 4175 
L 1375 3381 
L 2016 3381 
L 2016 2788 
L 1375 2788 
L 1375 1031 
Q 1375 784 1469 667 
Q 1563 550 1759 550 
Q 1863 550 2053 594 
L 2053 50 
Q 1728 -56 1313 -56 
z
" transform="scale(0.015625)"/>
     <path id="LiberationSans-Bold-69" d="M 447 3991 
L 447 4638 
L 1325 4638 
L 1325 3991 
L 447 3991 
z
M 447 0 
L 447 3381 
L 1325 3381 
L 1325 0 
L 447 0 
z
" transform="scale(0.015625)"/>
     <path id="LiberationSans-Bold-70" d="M 3647 1706 
Q 3647 859 3308 398 
Q 2969 -63 2350 -63 
Q 1994 -63 1730 92 
Q 1466 247 1325 538 
L 1306 538 
Q 1325 444 1325 -31 
L 1325 -1328 
L 447 -1328 
L 447 2603 
Q 447 3081 422 3381 
L 1275 3381 
Q 1291 3325 1302 3159 
Q 1313 2994 1313 2831 
L 1325 2831 
Q 1622 3453 2406 3453 
Q 2997 3453 3322 2998 
Q 3647 2544 3647 1706 
z
M 2731 1706 
Q 2731 2844 2034 2844 
Q 1684 2844 1498 2537 
Q 1313 2231 1313 1681 
Q 1313 1134 1498 836 
Q 1684 538 2028 538 
Q 2731 538 2731 1706 
z
" transform="scale(0.015625)"/>
     <path id="LiberationSans-Bold-65" d="M 1831 -63 
Q 1069 -63 659 389 
Q 250 841 250 1706 
Q 250 2544 665 2994 
Q 1081 3444 1844 3444 
Q 2572 3444 2956 2961 
Q 3341 2478 3341 1547 
L 3341 1522 
L 1172 1522 
Q 1172 1028 1355 776 
Q 1538 525 1875 525 
Q 2341 525 2463 928 
L 3291 856 
Q 2931 -63 1831 -63 
z
M 1831 2891 
Q 1522 2891 1355 2675 
Q 1188 2459 1178 2072 
L 2491 2072 
Q 2466 2481 2294 2686 
Q 2122 2891 1831 2891 
z
" transform="scale(0.015625)"/>
     <path id="LiberationSans-Bold-20" transform="scale(0.015625)"/>
     <path id="LiberationSans-Bold-50" d="M 4050 3009 
Q 4050 2584 3856 2250 
Q 3663 1916 3302 1733 
Q 2941 1550 2444 1550 
L 1350 1550 
L 1350 0 
L 428 0 
L 428 4403 
L 2406 4403 
Q 3197 4403 3623 4039 
Q 4050 3675 4050 3009 
z
M 3122 2994 
Q 3122 3688 2303 3688 
L 1350 3688 
L 1350 2259 
L 2328 2259 
Q 2709 2259 2915 2448 
Q 3122 2638 3122 2994 
z
" transform="scale(0.015625)"/>
     <path id="LiberationSans-Bold-6f" d="M 3659 1694 
Q 3659 872 3203 404 
Q 2747 -63 1941 -63 
Q 1150 -63 700 406 
Q 250 875 250 1694 
Q 250 2509 700 2976 
Q 1150 3444 1959 3444 
Q 2788 3444 3223 2992 
Q 3659 2541 3659 1694 
z
M 2741 1694 
Q 2741 2297 2544 2569 
Q 2347 2841 1972 2841 
Q 1172 2841 1172 1694 
Q 1172 1128 1367 833 
Q 1563 538 1931 538 
Q 2741 538 2741 1694 
z
" transform="scale(0.015625)"/>
     <path id="LiberationSans-Bold-54" d="M 2416 3691 
L 2416 0 
L 1494 0 
L 1494 3691 
L 72 3691 
L 72 4403 
L 3841 4403 
L 3841 3691 
L 2416 3691 
z
" transform="scale(0.015625)"/>
     <path id="LiberationSans-Bold-79" d="M 884 -1328 
Q 569 -1328 331 -1288 
L 331 -663 
Q 497 -688 634 -688 
Q 822 -688 945 -628 
Q 1069 -569 1167 -431 
Q 1266 -294 1388 34 
L 50 3381 
L 978 3381 
L 1509 1797 
Q 1634 1456 1825 753 
L 1903 1050 
L 2106 1784 
L 2606 3381 
L 3525 3381 
L 2188 -178 
Q 1919 -828 1630 -1078 
Q 1341 -1328 884 -1328 
z
" transform="scale(0.015625)"/>
     <path id="LiberationSans-Bold-73" d="M 3297 988 
Q 3297 497 2895 217 
Q 2494 -63 1784 -63 
Q 1088 -63 717 157 
Q 347 378 225 844 
L 997 959 
Q 1063 719 1223 619 
Q 1384 519 1784 519 
Q 2153 519 2322 612 
Q 2491 706 2491 906 
Q 2491 1069 2355 1164 
Q 2219 1259 1894 1325 
Q 1150 1472 890 1598 
Q 631 1725 495 1926 
Q 359 2128 359 2422 
Q 359 2906 732 3176 
Q 1106 3447 1791 3447 
Q 2394 3447 2761 3212 
Q 3128 2978 3219 2534 
L 2441 2453 
Q 2403 2659 2256 2761 
Q 2109 2863 1791 2863 
Q 1478 2863 1322 2783 
Q 1166 2703 1166 2516 
Q 1166 2369 1286 2283 
Q 1406 2197 1691 2141 
Q 2088 2059 2395 1973 
Q 2703 1888 2889 1769 
Q 3075 1650 3186 1464 
Q 3297 1278 3297 988 
z
" transform="scale(0.015625)"/>
    </defs>
    <use xlink:href="#LiberationSans-Bold-4d"/>
    <use xlink:href="#LiberationSans-Bold-75" transform="translate(83.300781 0)"/>
    <use xlink:href="#LiberationSans-Bold-6c" transform="translate(144.384766 0)"/>
    <use xlink:href="#LiberationSans-Bold-74" transform="translate(172.167969 0)"/>
    <use xlink:href="#LiberationSans-Bold-69" transform="translate(205.46875 0)"/>
    <use xlink:href="#LiberationSans-Bold-70" transform="translate(233.251953 0)"/>
    <use xlink:href="#LiberationSans-Bold-6c" transform="translate(294.335938 0)"/>
    <use xlink:href="#LiberationSans-Bold-65" transform="translate(322.119141 0)"/>
    <use xlink:href="#LiberationSans-Bold-20" transform="translate(377.734375 0)"/>
    <use xlink:href="#LiberationSans-Bold-50" transform="translate(405.517578 0)"/>
    <use xlink:href="#LiberationSans-Bold-6c" transform="translate(472.216797 0)"/>
    <use xlink:href="#LiberationSans-Bold-6f" transform="translate(500 0)"/>
    <use xlink:href="#LiberationSans-Bold-74" transform="translate(561.083984 0)"/>
    <use xlink:href="#LiberationSans-Bold-20" transform="translate(594.384766 0)"/>
    <use xlink:href="#LiberationSans-Bold-54" transform="translate(622.167969 0)"/>
    <use xlink:href="#LiberationSans-Bold-79" transform="translate(675.876953 0)"/>
    <use xlink:href="#LiberationSans-Bold-70" transform="translate(731.492188 0)"/>
    <use xlink:href="#LiberationSans-Bold-65" transform="translate(792.576172 0)"/>
    <use xlink:href="#LiberationSans-Bold-73" transform="translate(848.191406 0)"/>
   </g>
  </g>
 </g>
 <defs>
  <clipPath id="p1c8d9d1952">
   <rect x="35.423438" y="45.6" width="307.86" height="217.26"/>
  </clipPath>
  <clipPath id="p078b221e66">
   <rect x="396.953437" y="45.6" width="307.86" height="217.26"/>
  </clipPath>
  <clipPath id="p8713ea2b8f">
   <rect x="35.423438" y="315.96" width="307.86" height="217.26"/>
  </clipPath>
  <clipPath id="pe50a1d21c2">
   <rect x="396.953437" y="315.96" width="307.86" height="217.26"/>
  </clipPath>
 </defs>
</svg>
